<svg width="126" height="89" viewBox="0 0 126 89" fill="none" xmlns="http://www.w3.org/2000/svg">
<path d="M35.7144 0.612183L50.286 0.701522C54.8893 0.729734 58.2936 1.08239 60.5036 1.75948C62.7135 2.43658 64.2981 3.79077 65.2621 5.81736C66.226 7.84864 66.1601 11.1072 65.0599 15.5929C64.3169 18.6305 63.2825 20.7417 61.9612 21.9313C60.6399 23.1209 58.3829 24.0284 55.1997 24.6491C58.4018 25.3779 60.4048 26.5628 61.2089 28.2085C62.0082 29.8543 61.9988 32.3651 61.1713 35.7459L59.9911 40.5608C59.1306 44.0686 58.0632 46.6688 56.7795 48.3521C55.5006 50.0355 53.8314 51.1828 51.786 51.794C49.7359 52.4006 45.7767 52.6874 39.8992 52.6498L23 52.5417L35.7144 0.612183ZM43.3458 29.2242L39.791 43.7582C41.8646 43.7065 43.2517 43.415 43.9476 42.8836C44.6436 42.3523 45.2501 41.0404 45.7626 38.9433L46.9476 34.1002C47.493 31.8761 47.5682 30.5266 47.1733 30.0517C46.7783 29.5768 45.504 29.3041 43.3458 29.2242ZM48.1513 9.5884L45.3253 21.1366C45.9554 21.1178 46.4444 21.1131 46.7924 21.1131C48.2265 21.1225 49.2186 20.8028 49.7735 20.1539C50.3236 19.505 50.9772 17.6383 51.7342 14.5585C52.1339 12.9316 52.2468 11.7937 52.0822 11.1401C51.9176 10.4865 51.5979 10.0727 51.1183 9.89874C50.6387 9.72476 49.6512 9.62132 48.1513 9.59311V9.5884Z" fill="#61A7C6"/>
<path d="M93.5637 23.6052C95.5291 24.2823 96.8504 25.3779 97.5181 26.892C98.1905 28.406 97.8472 31.9467 96.4836 37.5092C95.4727 41.6376 94.1796 44.8397 92.6044 47.1108C91.0292 49.3819 88.8475 51.1075 86.0592 52.2784C83.2709 53.4492 79.9183 54.0228 76.0109 53.9993C71.5674 53.9711 68.2525 53.2611 66.0566 51.8646C63.8608 50.4681 62.61 48.7706 62.2997 46.7628C61.9894 44.7598 62.4408 41.285 63.6492 36.3431L64.6554 32.2382L78.6722 32.3275L76.608 40.763C76.0579 43.0106 75.8557 44.4353 75.9921 45.0466C76.1331 45.6579 76.6974 45.9682 77.6942 45.9729C78.7804 45.9776 79.5939 45.6014 80.1299 44.8303C80.6659 44.0639 81.3289 42.0514 82.1236 38.8023L83.0028 35.2099C83.4919 33.2209 83.6047 31.7633 83.3414 30.8417C83.0781 29.9201 82.5091 29.3088 81.6345 29.0173C80.7553 28.7211 78.9591 28.5471 76.2413 28.486L78.0845 20.9486C81.4135 20.9674 83.5013 20.8639 84.3476 20.6335C85.1893 20.4031 85.8852 19.8953 86.4259 19.1054C86.9667 18.3154 87.4416 17.0788 87.8554 15.386L88.5607 12.499C89.0074 10.6793 89.0967 9.48026 88.8334 8.90191C88.5701 8.32356 88.0105 8.02733 87.1548 8.02263C86.1861 8.01793 85.4432 8.31886 84.9354 8.92542C84.4276 9.53199 83.9291 10.8298 83.4448 12.8187L82.401 17.0835L68.3842 16.9941L69.4656 12.5648C70.6788 7.60414 72.7241 4.25628 75.6065 2.53063C78.4842 0.81438 82.5985 -0.0319902 87.94 0.000924128C94.6263 0.0432426 98.8629 1.27988 100.654 3.71084C102.446 6.14181 102.817 9.50377 101.764 13.8015C101.054 16.7073 100.109 18.8044 98.9381 20.0928C97.7673 21.3812 95.9711 22.552 93.559 23.6052H93.5637Z" fill="#61A7C6"/>
<path d="M3.94375 70.6917C3.94375 70.885 3.93708 71.025 3.92375 71.1117C3.91708 71.1984 3.90375 71.2417 3.88375 71.2417C3.57708 71.2417 3.28042 71.2217 2.99375 71.1817C2.70708 71.135 2.44708 71.055 2.21375 70.9417C1.98708 70.8217 1.81042 70.6617 1.68375 70.4617C1.55708 70.255 1.49375 70.005 1.49375 69.7117V63.8917H2.86375V69.2717C2.86375 69.4317 2.88375 69.5717 2.92375 69.6917C2.97042 69.805 3.03375 69.895 3.11375 69.9617C3.20042 70.0217 3.29375 70.065 3.39375 70.0917C3.49375 70.1117 3.59708 70.1217 3.70375 70.1217C3.79042 70.1217 3.85042 70.1684 3.88375 70.2617C3.92375 70.355 3.94375 70.4984 3.94375 70.6917ZM5.18508 70.1217C5.27841 70.1217 5.34841 70.1684 5.39508 70.2617C5.44841 70.355 5.47508 70.5084 5.47508 70.7217C5.47508 70.895 5.46174 71.025 5.43508 71.1117C5.41508 71.1984 5.37508 71.2417 5.31508 71.2417H3.83508C3.66841 71.2417 3.55508 71.2017 3.49508 71.1217C3.43508 71.0417 3.40508 70.895 3.40508 70.6817C3.40508 70.5084 3.43174 70.3717 3.48508 70.2717C3.53174 70.1717 3.60508 70.1217 3.70508 70.1217H5.18508ZM6.66945 70.1217C6.76279 70.1217 6.83279 70.1684 6.87945 70.2617C6.93279 70.355 6.95945 70.5084 6.95945 70.7217C6.95945 70.895 6.94612 71.025 6.91945 71.1117C6.89945 71.1984 6.85945 71.2417 6.79945 71.2417H5.31945C5.15279 71.2417 5.03945 71.2017 4.97945 71.1217C4.91945 71.0417 4.88945 70.895 4.88945 70.6817C4.88945 70.5084 4.91612 70.3717 4.96945 70.2717C5.01612 70.1717 5.08945 70.1217 5.18945 70.1217H6.66945ZM8.15383 70.1217C8.24716 70.1217 8.31716 70.1684 8.36383 70.2617C8.41716 70.355 8.44383 70.5084 8.44383 70.7217C8.44383 70.895 8.43049 71.025 8.40383 71.1117C8.38383 71.1984 8.34383 71.2417 8.28383 71.2417H6.80383C6.63716 71.2417 6.52383 71.2017 6.46383 71.1217C6.40383 71.0417 6.37383 70.895 6.37383 70.6817C6.37383 70.5084 6.40049 70.3717 6.45383 70.2717C6.50049 70.1717 6.57383 70.1217 6.67383 70.1217H8.15383ZM9.6382 70.1217C9.73154 70.1217 9.80154 70.1684 9.8482 70.2617C9.90154 70.355 9.9282 70.5084 9.9282 70.7217C9.9282 70.895 9.91487 71.025 9.8882 71.1117C9.8682 71.1984 9.8282 71.2417 9.7682 71.2417H8.2882C8.12154 71.2417 8.0082 71.2017 7.9482 71.1217C7.8882 71.0417 7.8582 70.895 7.8582 70.6817C7.8582 70.5084 7.88487 70.3717 7.9382 70.2717C7.98487 70.1717 8.0582 70.1217 8.1582 70.1217H9.6382ZM11.1226 70.1217C11.2159 70.1217 11.2859 70.1684 11.3326 70.2617C11.3859 70.355 11.4126 70.5084 11.4126 70.7217C11.4126 70.895 11.3992 71.025 11.3726 71.1117C11.3526 71.1984 11.3126 71.2417 11.2526 71.2417H9.77258C9.60591 71.2417 9.49258 71.2017 9.43258 71.1217C9.37258 71.0417 9.34258 70.895 9.34258 70.6817C9.34258 70.5084 9.36924 70.3717 9.42258 70.2717C9.46924 70.1717 9.54258 70.1217 9.64258 70.1217H11.1226ZM12.607 70.1217C12.7003 70.1217 12.7703 70.1684 12.817 70.2617C12.8703 70.355 12.897 70.5084 12.897 70.7217C12.897 70.895 12.8836 71.025 12.857 71.1117C12.837 71.1984 12.797 71.2417 12.737 71.2417H11.257C11.0903 71.2417 10.977 71.2017 10.917 71.1217C10.857 71.0417 10.827 70.895 10.827 70.6817C10.827 70.5084 10.8536 70.3717 10.907 70.2717C10.9536 70.1717 11.027 70.1217 11.127 70.1217H12.607ZM14.0913 70.1217C14.1847 70.1217 14.2547 70.1684 14.3013 70.2617C14.3547 70.355 14.3813 70.5084 14.3813 70.7217C14.3813 70.895 14.368 71.025 14.3413 71.1117C14.3213 71.1984 14.2813 71.2417 14.2213 71.2417H12.7413C12.5747 71.2417 12.4613 71.2017 12.4013 71.1217C12.3413 71.0417 12.3113 70.895 12.3113 70.6817C12.3113 70.5084 12.338 70.3717 12.3913 70.2717C12.438 70.1717 12.5113 70.1217 12.6113 70.1217H14.0913ZM15.1657 65.0817C15.1657 64.875 15.2324 64.705 15.3657 64.5717C15.5057 64.4384 15.679 64.3717 15.8857 64.3717C16.0924 64.3717 16.259 64.4384 16.3857 64.5717C16.519 64.705 16.5857 64.875 16.5857 65.0817C16.5857 65.295 16.519 65.4684 16.3857 65.6017C16.259 65.735 16.0924 65.8017 15.8857 65.8017C15.6724 65.8017 15.499 65.735 15.3657 65.6017C15.2324 65.4617 15.1657 65.2884 15.1657 65.0817ZM14.1357 70.1217C14.3424 70.1217 14.5124 70.105 14.6457 70.0717C14.7857 70.0317 14.8924 69.975 14.9657 69.9017C15.039 69.8217 15.089 69.725 15.1157 69.6117C15.1424 69.4984 15.1557 69.3617 15.1557 69.2017V66.7717H16.5157V69.4417C16.5157 69.755 16.479 70.0217 16.4057 70.2417C16.3324 70.4617 16.209 70.6484 16.0357 70.8017C15.869 70.9484 15.6457 71.0584 15.3657 71.1317C15.0857 71.205 14.7357 71.2417 14.3157 71.2417C14.1424 71.2417 14.0124 71.1984 13.9257 71.1117C13.839 71.0184 13.7957 70.885 13.7957 70.7117C13.7957 70.525 13.8257 70.3817 13.8857 70.2817C13.939 70.175 14.0224 70.1217 14.1357 70.1217ZM20.2426 70.6917C20.2426 70.885 20.2359 71.025 20.2226 71.1117C20.2159 71.1984 20.2026 71.2417 20.1826 71.2417C19.8759 71.2417 19.5792 71.2217 19.2926 71.1817C19.0059 71.135 18.7459 71.055 18.5126 70.9417C18.2859 70.8217 18.1092 70.6617 17.9826 70.4617C17.8559 70.255 17.7926 70.005 17.7926 69.7117V63.8917H19.1626V69.2717C19.1626 69.4317 19.1826 69.5717 19.2226 69.6917C19.2692 69.805 19.3326 69.895 19.4126 69.9617C19.4992 70.0217 19.5926 70.065 19.6926 70.0917C19.7926 70.1117 19.8959 70.1217 20.0026 70.1217C20.0892 70.1217 20.1492 70.1684 20.1826 70.2617C20.2226 70.355 20.2426 70.4984 20.2426 70.6917ZM20.1839 71.2417C20.0106 71.2417 19.8806 71.195 19.7939 71.1017C19.7072 71.0084 19.6639 70.8784 19.6639 70.7117C19.6639 70.5184 19.6939 70.3717 19.7539 70.2717C19.8139 70.1717 19.8972 70.1217 20.0039 70.1217H21.0639C21.2572 70.1217 21.4306 70.1084 21.5839 70.0817C21.7372 70.055 21.8572 70.025 21.9439 69.9917C21.7839 69.825 21.6406 69.6784 21.5139 69.5517C21.3872 69.425 21.2639 69.3117 21.1439 69.2117C21.0239 69.105 20.8939 69.0017 20.7539 68.9017C20.6139 68.8017 20.4506 68.695 20.2639 68.5817C20.2706 68.515 20.2806 68.4217 20.2939 68.3017C20.3139 68.1817 20.3339 68.0584 20.3539 67.9317C20.3739 67.805 20.3939 67.6884 20.4139 67.5817C20.4406 67.475 20.4639 67.395 20.4839 67.3417C20.5972 67.2684 20.7372 67.195 20.9039 67.1217C21.0772 67.0417 21.2639 66.9717 21.4639 66.9117C21.6639 66.845 21.8706 66.7917 22.0839 66.7517C22.2972 66.7117 22.5106 66.6917 22.7239 66.6917C23.0439 66.6917 23.3472 66.725 23.6339 66.7917C23.9206 66.8517 24.1706 66.9484 24.3839 67.0817C24.5972 67.2084 24.7639 67.3684 24.8839 67.5617C25.0106 67.7484 25.0739 67.9717 25.0739 68.2317C25.0739 68.405 25.0406 68.5784 24.9739 68.7517C24.9072 68.9184 24.8139 69.0817 24.6939 69.2417C24.5806 69.395 24.4439 69.5417 24.2839 69.6817C24.1239 69.8217 23.9506 69.9484 23.7639 70.0617C23.8439 70.0884 23.9539 70.105 24.0939 70.1117C24.2406 70.1184 24.3606 70.1217 24.4539 70.1217H25.4739C25.5672 70.1217 25.6372 70.165 25.6839 70.2517C25.7372 70.3384 25.7639 70.485 25.7639 70.6917C25.7639 70.925 25.7572 71.075 25.7439 71.1417C25.7306 71.2084 25.7006 71.2417 25.6539 71.2417H24.2439C23.8906 71.2417 23.5839 71.205 23.3239 71.1317C23.0706 71.0584 22.8639 70.965 22.7039 70.8517C22.4639 70.965 22.1906 71.0584 21.8839 71.1317C21.5772 71.205 21.2639 71.2417 20.9439 71.2417H20.1839ZM22.7239 67.8317C22.6039 67.8317 22.4839 67.8417 22.3639 67.8617C22.2439 67.8817 22.1306 67.905 22.0239 67.9317C21.9172 67.9584 21.8206 67.9884 21.7339 68.0217C21.6539 68.055 21.5939 68.085 21.5539 68.1117C21.8406 68.3384 22.0872 68.5684 22.2939 68.8017C22.5006 69.035 22.6872 69.2684 22.8539 69.5017C22.9539 69.4417 23.0539 69.3717 23.1539 69.2917C23.2539 69.205 23.3439 69.115 23.4239 69.0217C23.5039 68.9217 23.5672 68.8217 23.6139 68.7217C23.6606 68.615 23.6839 68.505 23.6839 68.3917C23.6839 68.3317 23.6672 68.2684 23.6339 68.2017C23.6006 68.135 23.5439 68.075 23.4639 68.0217C23.3906 67.9617 23.2906 67.915 23.1639 67.8817C23.0439 67.8484 22.8972 67.8317 22.7239 67.8317ZM26.9527 70.1217C27.046 70.1217 27.116 70.1684 27.1627 70.2617C27.216 70.355 27.2427 70.5084 27.2427 70.7217C27.2427 70.895 27.2293 71.025 27.2027 71.1117C27.1827 71.1984 27.1427 71.2417 27.0827 71.2417H25.6027C25.436 71.2417 25.3227 71.2017 25.2627 71.1217C25.2027 71.0417 25.1727 70.895 25.1727 70.6817C25.1727 70.5084 25.1993 70.3717 25.2527 70.2717C25.2993 70.1717 25.3727 70.1217 25.4727 70.1217H26.9527ZM28.437 70.1217C28.5304 70.1217 28.6004 70.1684 28.647 70.2617C28.7004 70.355 28.727 70.5084 28.727 70.7217C28.727 70.895 28.7137 71.025 28.687 71.1117C28.667 71.1984 28.627 71.2417 28.567 71.2417H27.087C26.9204 71.2417 26.807 71.2017 26.747 71.1217C26.687 71.0417 26.657 70.895 26.657 70.6817C26.657 70.5084 26.6837 70.3717 26.737 70.2717C26.7837 70.1717 26.857 70.1217 26.957 70.1217H28.437ZM29.9214 70.1217C30.0147 70.1217 30.0847 70.1684 30.1314 70.2617C30.1847 70.355 30.2114 70.5084 30.2114 70.7217C30.2114 70.895 30.1981 71.025 30.1714 71.1117C30.1514 71.1984 30.1114 71.2417 30.0514 71.2417H28.5714C28.4047 71.2417 28.2914 71.2017 28.2314 71.1217C28.1714 71.0417 28.1414 70.895 28.1414 70.6817C28.1414 70.5084 28.1681 70.3717 28.2214 70.2717C28.2681 70.1717 28.3414 70.1217 28.4414 70.1217H29.9214ZM30.1058 71.2417C29.9324 71.2417 29.8024 71.1984 29.7158 71.1117C29.6291 71.0184 29.5858 70.885 29.5858 70.7117C29.5858 70.5184 29.6158 70.3717 29.6758 70.2717C29.7358 70.1717 29.8191 70.1217 29.9258 70.1217H30.1858C30.3124 70.1217 30.4124 70.0984 30.4858 70.0517C30.5658 70.005 30.6258 69.9417 30.6658 69.8617C30.7124 69.7817 30.7458 69.6884 30.7658 69.5817C30.7924 69.4684 30.8158 69.335 30.8358 69.1817C30.8624 68.815 30.9324 68.4784 31.0458 68.1717C31.1658 67.865 31.3224 67.6017 31.5158 67.3817C31.7158 67.1617 31.9524 66.9917 32.2258 66.8717C32.5058 66.7517 32.8124 66.6917 33.1458 66.6917C33.5258 66.6917 33.8624 66.7484 34.1558 66.8617C34.4491 66.975 34.6924 67.1317 34.8858 67.3317C35.0858 67.5317 35.2358 67.775 35.3358 68.0617C35.4424 68.3484 35.4958 68.6584 35.4958 68.9917C35.4958 69.3984 35.4324 69.7517 35.3058 70.0517C35.1858 70.3517 35.0191 70.5917 34.8058 70.7717C34.5924 70.9517 34.3558 71.0817 34.0958 71.1617C33.8358 71.2417 33.5724 71.2817 33.3058 71.2817C33.0058 71.2817 32.7324 71.245 32.4858 71.1717C32.2391 71.0917 31.9724 70.9384 31.6858 70.7117C31.5191 70.9184 31.3458 71.0584 31.1658 71.1317C30.9858 71.205 30.7391 71.2417 30.4258 71.2417H30.1058ZM33.1958 67.8417C33.0158 67.8417 32.8591 67.8917 32.7258 67.9917C32.5991 68.085 32.4891 68.215 32.3958 68.3817C32.3091 68.5417 32.2391 68.725 32.1858 68.9317C32.1391 69.1384 32.1058 69.3684 32.0858 69.6217C32.2991 69.815 32.4891 69.9484 32.6558 70.0217C32.8291 70.095 33.0124 70.1317 33.2058 70.1317C33.4858 70.1317 33.7091 70.035 33.8758 69.8417C34.0424 69.6484 34.1258 69.395 34.1258 69.0817C34.1258 68.6884 34.0424 68.385 33.8758 68.1717C33.7091 67.9517 33.4824 67.8417 33.1958 67.8417ZM41.1091 71.2417C40.7891 71.2417 40.4891 71.2084 40.2091 71.1417C39.9357 71.0684 39.6957 70.955 39.4891 70.8017C39.2824 70.6484 39.1224 70.455 39.0091 70.2217C38.8957 69.9817 38.8391 69.6984 38.8391 69.3717C38.8391 69.1517 38.8657 68.8984 38.9191 68.6117C38.9724 68.325 39.0591 68.0417 39.1791 67.7617L40.3991 68.1317C40.3191 68.385 40.2657 68.585 40.2391 68.7317C40.2124 68.8717 40.1991 68.995 40.1991 69.1017C40.1991 69.435 40.3091 69.6884 40.5291 69.8617C40.7491 70.035 41.0724 70.1217 41.4991 70.1217H44.5591C44.7724 70.1217 44.9491 70.105 45.0891 70.0717C45.2291 70.0384 45.3424 69.975 45.4291 69.8817C45.5157 69.7884 45.5757 69.665 45.6091 69.5117C45.6424 69.3584 45.6591 69.1617 45.6591 68.9217V63.8917H47.0291V69.1617C47.0291 69.4484 47.1291 69.6817 47.3291 69.8617C47.5291 70.035 47.8024 70.1217 48.1491 70.1217C48.2491 70.1217 48.3224 70.165 48.3691 70.2517C48.4157 70.3384 48.4391 70.4784 48.4391 70.6717C48.4391 70.905 48.4324 71.0584 48.4191 71.1317C48.4057 71.205 48.3757 71.2417 48.3291 71.2417C48.2024 71.2417 48.0657 71.2317 47.9191 71.2117C47.7791 71.1917 47.6357 71.1584 47.4891 71.1117C47.3424 71.0584 47.2091 70.995 47.0891 70.9217C46.9691 70.8417 46.8591 70.7384 46.7591 70.6117C46.6191 70.8184 46.4257 70.975 46.1791 71.0817C45.9324 71.1884 45.6191 71.2417 45.2391 71.2417H41.1091ZM43.3091 66.5117C43.6024 66.5117 43.8191 66.5717 43.9591 66.6917C44.1057 66.8117 44.1791 67.0017 44.1791 67.2617V67.7017C44.1791 67.9284 44.1157 68.105 43.9891 68.2317C43.8624 68.3584 43.6791 68.4217 43.4391 68.4217H42.1391V67.7817H43.1791C43.2924 67.7817 43.3691 67.7617 43.4091 67.7217C43.4557 67.6817 43.4791 67.605 43.4791 67.4917V67.4417C43.4791 67.3284 43.4491 67.2517 43.3891 67.2117C43.3291 67.165 43.2391 67.1417 43.1191 67.1417H42.3191V66.5117L43.2891 65.3617L43.7691 65.7617L43.1391 66.5117H43.3091ZM49.6284 70.1217C49.7218 70.1217 49.7918 70.1684 49.8384 70.2617C49.8918 70.355 49.9184 70.5084 49.9184 70.7217C49.9184 70.895 49.9051 71.025 49.8784 71.1117C49.8584 71.1984 49.8184 71.2417 49.7584 71.2417H48.2784C48.1118 71.2417 47.9984 71.2017 47.9384 71.1217C47.8784 71.0417 47.8484 70.895 47.8484 70.6817C47.8484 70.5084 47.8751 70.3717 47.9284 70.2717C47.9751 70.1717 48.0484 70.1217 48.1484 70.1217H49.6284ZM51.1128 70.1217C51.2061 70.1217 51.2761 70.1684 51.3228 70.2617C51.3761 70.355 51.4028 70.5084 51.4028 70.7217C51.4028 70.895 51.3895 71.025 51.3628 71.1117C51.3428 71.1984 51.3028 71.2417 51.2428 71.2417H49.7628C49.5961 71.2417 49.4828 71.2017 49.4228 71.1217C49.3628 71.0417 49.3328 70.895 49.3328 70.6817C49.3328 70.5084 49.3595 70.3717 49.4128 70.2717C49.4595 70.1717 49.5328 70.1217 49.6328 70.1217H51.1128ZM52.5972 70.1217C52.6905 70.1217 52.7605 70.1684 52.8072 70.2617C52.8605 70.355 52.8872 70.5084 52.8872 70.7217C52.8872 70.895 52.8739 71.025 52.8472 71.1117C52.8272 71.1984 52.7872 71.2417 52.7272 71.2417H51.2472C51.0805 71.2417 50.9672 71.2017 50.9072 71.1217C50.8472 71.0417 50.8172 70.895 50.8172 70.6817C50.8172 70.5084 50.8439 70.3717 50.8972 70.2717C50.9439 70.1717 51.0172 70.1217 51.1172 70.1217H52.5972ZM54.0816 70.1217C54.1749 70.1217 54.2449 70.1684 54.2916 70.2617C54.3449 70.355 54.3716 70.5084 54.3716 70.7217C54.3716 70.895 54.3582 71.025 54.3316 71.1117C54.3116 71.1984 54.2716 71.2417 54.2116 71.2417H52.7316C52.5649 71.2417 52.4516 71.2017 52.3916 71.1217C52.3316 71.0417 52.3016 70.895 52.3016 70.6817C52.3016 70.5084 52.3282 70.3717 52.3816 70.2717C52.4282 70.1717 52.5016 70.1217 52.6016 70.1217H54.0816ZM55.5659 70.1217C55.6593 70.1217 55.7293 70.1684 55.7759 70.2617C55.8293 70.355 55.8559 70.5084 55.8559 70.7217C55.8559 70.895 55.8426 71.025 55.8159 71.1117C55.7959 71.1984 55.7559 71.2417 55.6959 71.2417H54.2159C54.0493 71.2417 53.9359 71.2017 53.8759 71.1217C53.8159 71.0417 53.7859 70.895 53.7859 70.6817C53.7859 70.5084 53.8126 70.3717 53.8659 70.2717C53.9126 70.1717 53.9859 70.1217 54.0859 70.1217H55.5659ZM57.0503 70.1217C57.1436 70.1217 57.2136 70.1684 57.2603 70.2617C57.3136 70.355 57.3403 70.5084 57.3403 70.7217C57.3403 70.895 57.327 71.025 57.3003 71.1117C57.2803 71.1984 57.2403 71.2417 57.1803 71.2417H55.7003C55.5336 71.2417 55.4203 71.2017 55.3603 71.1217C55.3003 71.0417 55.2703 70.895 55.2703 70.6817C55.2703 70.5084 55.297 70.3717 55.3503 70.2717C55.397 70.1717 55.4703 70.1217 55.5703 70.1217H57.0503ZM58.5347 70.1217C58.628 70.1217 58.698 70.1684 58.7447 70.2617C58.798 70.355 58.8247 70.5084 58.8247 70.7217C58.8247 70.895 58.8114 71.025 58.7847 71.1117C58.7647 71.1984 58.7247 71.2417 58.6647 71.2417H57.1847C57.018 71.2417 56.9047 71.2017 56.8447 71.1217C56.7847 71.0417 56.7547 70.895 56.7547 70.6817C56.7547 70.5084 56.7814 70.3717 56.8347 70.2717C56.8814 70.1717 56.9547 70.1217 57.0547 70.1217H58.5347ZM60.0191 70.1217C60.1124 70.1217 60.1824 70.1684 60.2291 70.2617C60.2824 70.355 60.3091 70.5084 60.3091 70.7217C60.3091 70.895 60.2957 71.025 60.2691 71.1117C60.2491 71.1984 60.2091 71.2417 60.1491 71.2417H58.6691C58.5024 71.2417 58.3891 71.2017 58.3291 71.1217C58.2691 71.0417 58.2391 70.895 58.2391 70.6817C58.2391 70.5084 58.2657 70.3717 58.3191 70.2717C58.3657 70.1717 58.4391 70.1217 58.5391 70.1217H60.0191ZM61.5034 70.1217C61.5968 70.1217 61.6668 70.1684 61.7134 70.2617C61.7668 70.355 61.7934 70.5084 61.7934 70.7217C61.7934 70.895 61.7801 71.025 61.7534 71.1117C61.7334 71.1984 61.6934 71.2417 61.6334 71.2417H60.1534C59.9868 71.2417 59.8734 71.2017 59.8134 71.1217C59.7534 71.0417 59.7234 70.895 59.7234 70.6817C59.7234 70.5084 59.7501 70.3717 59.8034 70.2717C59.8501 70.1717 59.9234 70.1217 60.0234 70.1217H61.5034ZM63.9678 70.5317C63.7545 70.8117 63.4311 71.0117 62.9978 71.1317C62.7845 71.185 62.5778 71.2184 62.3778 71.2317C62.1845 71.2384 61.9545 71.2417 61.6878 71.2417C61.5211 71.2417 61.3945 71.1984 61.3078 71.1117C61.2145 71.0184 61.1678 70.885 61.1678 70.7117C61.1678 70.5184 61.1978 70.3717 61.2578 70.2717C61.3178 70.1717 61.4011 70.1217 61.5078 70.1217C61.7811 70.1217 61.9945 70.115 62.1478 70.1017C62.3078 70.0884 62.4511 70.045 62.5778 69.9717C62.6578 69.925 62.7245 69.8617 62.7778 69.7817C62.8311 69.7017 62.8711 69.615 62.8978 69.5217C62.9311 69.4284 62.9511 69.3317 62.9578 69.2317C62.9711 69.1317 62.9778 69.0384 62.9778 68.9517V66.7717H64.3378V69.1617C64.3378 69.4484 64.4378 69.6817 64.6378 69.8617C64.8378 70.035 65.1111 70.1217 65.4578 70.1217C65.5578 70.1217 65.6311 70.165 65.6778 70.2517C65.7245 70.3384 65.7478 70.4784 65.7478 70.6717C65.7478 70.905 65.7411 71.0584 65.7278 71.1317C65.7145 71.205 65.6845 71.2417 65.6378 71.2417C65.5111 71.2417 65.3678 71.2284 65.2078 71.2017C65.0545 71.175 64.8978 71.135 64.7378 71.0817C64.5845 71.0217 64.4378 70.9484 64.2978 70.8617C64.1645 70.7684 64.0545 70.6584 63.9678 70.5317ZM62.0278 65.0817C62.0278 64.875 62.0945 64.705 62.2278 64.5717C62.3611 64.4384 62.5345 64.3717 62.7478 64.3717C62.9545 64.3717 63.1211 64.4384 63.2478 64.5717C63.3811 64.705 63.4478 64.875 63.4478 65.0817C63.4478 65.295 63.3811 65.4684 63.2478 65.6017C63.1211 65.735 62.9545 65.8017 62.7478 65.8017C62.5345 65.8017 62.3611 65.735 62.2278 65.6017C62.0945 65.4684 62.0278 65.295 62.0278 65.0817ZM63.7978 65.0817C63.7978 64.875 63.8645 64.705 63.9978 64.5717C64.1311 64.4384 64.3045 64.3717 64.5178 64.3717C64.7245 64.3717 64.8911 64.4384 65.0178 64.5717C65.1511 64.705 65.2178 64.875 65.2178 65.0817C65.2178 65.295 65.1511 65.4684 65.0178 65.6017C64.8911 65.735 64.7245 65.8017 64.5178 65.8017C64.3045 65.8017 64.1311 65.735 63.9978 65.6017C63.8645 65.4684 63.7978 65.295 63.7978 65.0817ZM65.6331 71.2417C65.4865 71.2417 65.3631 71.2017 65.2631 71.1217C65.1631 71.0417 65.1131 70.905 65.1131 70.7117C65.1131 70.5717 65.1365 70.4384 65.1831 70.3117C65.2298 70.185 65.3198 70.1217 65.4531 70.1217H67.5131C67.7731 70.1217 67.9831 70.095 68.1431 70.0417C68.3098 69.9884 68.4331 69.915 68.5131 69.8217C68.5931 69.7217 68.6465 69.6084 68.6731 69.4817C68.6998 69.355 68.7131 69.2117 68.7131 69.0517C68.7131 68.6517 68.5831 68.3484 68.3231 68.1417C68.0631 67.935 67.6665 67.8317 67.1331 67.8317C66.9998 67.8317 66.8331 67.845 66.6331 67.8717C66.4398 67.8984 66.2431 67.945 66.0431 68.0117L65.7531 66.9917C66.0531 66.8784 66.3465 66.8017 66.6331 66.7617C66.9198 66.715 67.1665 66.6917 67.3731 66.6917C67.8598 66.6917 68.2765 66.7517 68.6231 66.8717C68.9765 66.9917 69.2631 67.165 69.4831 67.3917C69.7098 67.6117 69.8698 67.8684 69.9631 68.1617C70.0631 68.455 70.1131 68.7717 70.1131 69.1117C70.1131 69.305 70.0965 69.495 70.0631 69.6817C70.1498 69.815 70.2731 69.9217 70.4331 70.0017C70.5998 70.0817 70.7765 70.1217 70.9631 70.1217C71.0431 70.1217 71.0998 70.1584 71.1331 70.2317C71.1731 70.305 71.1931 70.455 71.1931 70.6817C71.1931 70.8084 71.1898 70.9084 71.1831 70.9817C71.1831 71.055 71.1798 71.1084 71.1731 71.1417C71.1731 71.1684 71.1698 71.1917 71.1631 71.2117C71.1565 71.2317 71.1498 71.2417 71.1431 71.2417C71.0365 71.2417 70.9198 71.235 70.7931 71.2217C70.6665 71.2017 70.5331 71.1684 70.3931 71.1217C70.2598 71.075 70.1265 71.0084 69.9931 70.9217C69.8665 70.835 69.7531 70.7217 69.6531 70.5817C69.2731 71.0217 68.7231 71.2417 68.0031 71.2417H65.6331ZM72.4409 70.1217C72.5343 70.1217 72.6043 70.1684 72.6509 70.2617C72.7043 70.355 72.7309 70.5084 72.7309 70.7217C72.7309 70.895 72.7176 71.025 72.6909 71.1117C72.6709 71.1984 72.6309 71.2417 72.5709 71.2417H71.0909C70.9243 71.2417 70.8109 71.2017 70.7509 71.1217C70.6909 71.0417 70.6609 70.895 70.6609 70.6817C70.6609 70.5084 70.6876 70.3717 70.7409 70.2717C70.7876 70.1717 70.8609 70.1217 70.9609 70.1217H72.4409ZM72.6253 71.2417C72.4653 71.2417 72.3386 71.1984 72.2453 71.1117C72.152 71.025 72.1053 70.8917 72.1053 70.7117C72.1053 70.5317 72.1353 70.3884 72.1953 70.2817C72.2486 70.175 72.332 70.1217 72.4453 70.1217H73.3353V66.7717H74.7053V67.4417C75.232 67.1617 75.7286 66.9684 76.1953 66.8617C76.662 66.7484 77.082 66.6917 77.4553 66.6917C77.9153 66.6917 78.3153 66.7484 78.6553 66.8617C78.9953 66.9684 79.2753 67.1217 79.4953 67.3217C79.7153 67.5217 79.8786 67.765 79.9853 68.0517C80.092 68.3317 80.1453 68.6417 80.1453 68.9817V69.2717C80.1453 69.545 80.232 69.755 80.4053 69.9017C80.5786 70.0484 80.812 70.1217 81.1053 70.1217C81.2053 70.1217 81.2686 70.165 81.2953 70.2517C81.3286 70.3384 81.3453 70.4784 81.3453 70.6717C81.3453 70.905 81.3386 71.0584 81.3253 71.1317C81.3186 71.205 81.302 71.2417 81.2753 71.2417C80.9486 71.2417 80.662 71.185 80.4153 71.0717C80.1753 70.9517 79.9853 70.785 79.8453 70.5717C79.5453 71.0184 78.9986 71.2417 78.2053 71.2417H72.6253ZM77.1753 67.8317C76.7553 67.8317 76.3386 67.9017 75.9253 68.0417C75.5186 68.175 75.112 68.365 74.7053 68.6117V70.1217H77.8753C78.0553 70.1217 78.2053 70.0984 78.3253 70.0517C78.4453 69.9984 78.5353 69.9317 78.5953 69.8517C78.662 69.765 78.7086 69.665 78.7353 69.5517C78.762 69.4317 78.7753 69.3017 78.7753 69.1617C78.7753 68.7417 78.6353 68.415 78.3553 68.1817C78.0753 67.9484 77.682 67.8317 77.1753 67.8317ZM82.5874 70.1217C82.6808 70.1217 82.7508 70.1684 82.7974 70.2617C82.8508 70.355 82.8774 70.5084 82.8774 70.7217C82.8774 70.895 82.8641 71.025 82.8374 71.1117C82.8174 71.1984 82.7774 71.2417 82.7174 71.2417H81.2374C81.0708 71.2417 80.9574 71.2017 80.8974 71.1217C80.8374 71.0417 80.8074 70.895 80.8074 70.6817C80.8074 70.5084 80.8341 70.3717 80.8874 70.2717C80.9341 70.1717 81.0074 70.1217 81.1074 70.1217H82.5874ZM82.5918 70.1217C82.7985 70.1217 82.9685 70.105 83.1018 70.0717C83.2418 70.0317 83.3485 69.975 83.4218 69.9017C83.4951 69.8217 83.5451 69.725 83.5718 69.6117C83.5985 69.4984 83.6118 69.3617 83.6118 69.2017V66.7717H84.9718V69.4417C84.9718 69.755 84.9351 70.0217 84.8618 70.2417C84.7885 70.4617 84.6651 70.6484 84.4918 70.8017C84.3251 70.9484 84.1018 71.0584 83.8218 71.1317C83.5418 71.205 83.1918 71.2417 82.7718 71.2417C82.5985 71.2417 82.4685 71.1984 82.3818 71.1117C82.2951 71.0184 82.2518 70.885 82.2518 70.7117C82.2518 70.525 82.2818 70.3817 82.3418 70.2817C82.3951 70.175 82.4785 70.1217 82.5918 70.1217ZM83.4918 72.7317C83.4918 72.525 83.5585 72.355 83.6918 72.2217C83.8251 72.0884 83.9985 72.0217 84.2118 72.0217C84.4185 72.0217 84.5851 72.0884 84.7118 72.2217C84.8451 72.355 84.9118 72.525 84.9118 72.7317C84.9118 72.945 84.8451 73.1184 84.7118 73.2517C84.5851 73.385 84.4185 73.4517 84.2118 73.4517C83.9985 73.4517 83.8251 73.385 83.6918 73.2517C83.5585 73.1184 83.4918 72.945 83.4918 72.7317ZM89.0268 72.9917C88.8268 72.9917 88.6435 72.9784 88.4768 72.9517C88.3101 72.925 88.1735 72.895 88.0668 72.8617L88.2368 71.7917C88.3168 71.805 88.3935 71.815 88.4668 71.8217C88.5401 71.835 88.6135 71.8417 88.6868 71.8417C88.9401 71.8417 89.1201 71.7684 89.2268 71.6217C89.3401 71.475 89.3968 71.2384 89.3968 70.9117V66.7717H90.7668V70.1217H91.6068C91.7001 70.1217 91.7701 70.1684 91.8168 70.2617C91.8701 70.3484 91.8968 70.4917 91.8968 70.6917C91.8968 70.9117 91.8868 71.0584 91.8668 71.1317C91.8535 71.205 91.8268 71.2417 91.7868 71.2417H90.7668C90.7535 71.6017 90.6968 71.895 90.5968 72.1217C90.4968 72.3484 90.3635 72.525 90.1968 72.6517C90.0368 72.785 89.8535 72.875 89.6468 72.9217C89.4468 72.9684 89.2401 72.9917 89.0268 72.9917ZM91.7855 71.2417C91.6188 71.2417 91.4921 71.1984 91.4055 71.1117C91.3121 71.0184 91.2655 70.885 91.2655 70.7117C91.2655 70.5184 91.2955 70.3717 91.3555 70.2717C91.4155 70.1717 91.4988 70.1217 91.6055 70.1217H91.8655C91.9921 70.1217 92.0921 70.0984 92.1655 70.0517C92.2455 70.005 92.3055 69.9417 92.3455 69.8617C92.3921 69.7817 92.4255 69.6884 92.4455 69.5817C92.4721 69.4684 92.4955 69.335 92.5155 69.1817C92.5421 68.815 92.6121 68.4784 92.7255 68.1717C92.8455 67.865 93.0021 67.6017 93.1955 67.3817C93.3955 67.1617 93.6321 66.9917 93.9055 66.8717C94.1855 66.7517 94.4921 66.6917 94.8255 66.6917C95.2055 66.6917 95.5421 66.7484 95.8355 66.8617C96.1288 66.975 96.3755 67.135 96.5755 67.3417C96.7755 67.5484 96.9255 67.7917 97.0255 68.0717C97.1255 68.3517 97.1755 68.6584 97.1755 68.9917C97.1755 69.125 97.1688 69.2484 97.1555 69.3617C97.1421 69.475 97.1255 69.5817 97.1055 69.6817C97.1921 69.815 97.3188 69.9217 97.4855 70.0017C97.6521 70.0817 97.8255 70.1217 98.0055 70.1217C98.0988 70.1217 98.1588 70.1684 98.1855 70.2617C98.2188 70.355 98.2355 70.495 98.2355 70.6817C98.2355 70.8084 98.2321 70.9084 98.2255 70.9817C98.2255 71.055 98.2221 71.1117 98.2155 71.1517C98.2088 71.1917 98.2021 71.2184 98.1955 71.2317C98.1955 71.2384 98.1921 71.2417 98.1855 71.2417C98.0788 71.2417 97.9588 71.235 97.8255 71.2217C97.6988 71.2017 97.5655 71.1684 97.4255 71.1217C97.2921 71.0684 97.1588 70.9984 97.0255 70.9117C96.8988 70.825 96.7855 70.7117 96.6855 70.5717C96.4588 70.825 96.2021 71.0084 95.9155 71.1217C95.6288 71.2284 95.3188 71.2817 94.9855 71.2817C94.6721 71.2817 94.3888 71.2417 94.1355 71.1617C93.8888 71.075 93.6321 70.925 93.3655 70.7117C93.1988 70.9184 93.0255 71.0584 92.8455 71.1317C92.6655 71.205 92.4188 71.2417 92.1055 71.2417H91.7855ZM94.8755 67.8417C94.6955 67.8417 94.5388 67.8917 94.4055 67.9917C94.2788 68.085 94.1688 68.215 94.0755 68.3817C93.9888 68.5417 93.9188 68.725 93.8655 68.9317C93.8188 69.1384 93.7855 69.3684 93.7655 69.6217C93.9588 69.8017 94.1421 69.9317 94.3155 70.0117C94.4888 70.0917 94.6788 70.1317 94.8855 70.1317C95.1655 70.1317 95.3888 70.035 95.5555 69.8417C95.7221 69.6484 95.8055 69.395 95.8055 69.0817C95.8055 68.695 95.7221 68.3917 95.5555 68.1717C95.3955 67.9517 95.1688 67.8417 94.8755 67.8417ZM99.482 70.1217C99.5753 70.1217 99.6453 70.1684 99.692 70.2617C99.7453 70.355 99.772 70.5084 99.772 70.7217C99.772 70.895 99.7586 71.025 99.732 71.1117C99.712 71.1984 99.672 71.2417 99.612 71.2417H98.132C97.9653 71.2417 97.852 71.2017 97.792 71.1217C97.732 71.0417 97.702 70.895 97.702 70.6817C97.702 70.5084 97.7286 70.3717 97.782 70.2717C97.8286 70.1717 97.902 70.1217 98.002 70.1217H99.482ZM100.966 70.1217C101.06 70.1217 101.13 70.1684 101.176 70.2617C101.23 70.355 101.256 70.5084 101.256 70.7217C101.256 70.895 101.243 71.025 101.216 71.1117C101.196 71.1984 101.156 71.2417 101.096 71.2417H99.6163C99.4497 71.2417 99.3363 71.2017 99.2763 71.1217C99.2163 71.0417 99.1863 70.895 99.1863 70.6817C99.1863 70.5084 99.213 70.3717 99.2663 70.2717C99.313 70.1717 99.3863 70.1217 99.4863 70.1217H100.966ZM102.451 70.1217C102.544 70.1217 102.614 70.1684 102.661 70.2617C102.714 70.355 102.741 70.5084 102.741 70.7217C102.741 70.895 102.727 71.025 102.701 71.1117C102.681 71.1984 102.641 71.2417 102.581 71.2417H101.101C100.934 71.2417 100.821 71.2017 100.761 71.1217C100.701 71.0417 100.671 70.895 100.671 70.6817C100.671 70.5084 100.697 70.3717 100.751 70.2717C100.797 70.1717 100.871 70.1217 100.971 70.1217H102.451ZM103.935 70.1217C104.028 70.1217 104.098 70.1684 104.145 70.2617C104.198 70.355 104.225 70.5084 104.225 70.7217C104.225 70.895 104.212 71.025 104.185 71.1117C104.165 71.1984 104.125 71.2417 104.065 71.2417H102.585C102.418 71.2417 102.305 71.2017 102.245 71.1217C102.185 71.0417 102.155 70.895 102.155 70.6817C102.155 70.5084 102.182 70.3717 102.235 70.2717C102.282 70.1717 102.355 70.1217 102.455 70.1217H103.935ZM105.419 70.1217C105.513 70.1217 105.583 70.1684 105.629 70.2617C105.683 70.355 105.709 70.5084 105.709 70.7217C105.709 70.895 105.696 71.025 105.669 71.1117C105.649 71.1984 105.609 71.2417 105.549 71.2417H104.069C103.903 71.2417 103.789 71.2017 103.729 71.1217C103.669 71.0417 103.639 70.895 103.639 70.6817C103.639 70.5084 103.666 70.3717 103.719 70.2717C103.766 70.1717 103.839 70.1217 103.939 70.1217H105.419ZM106.904 70.1217C106.997 70.1217 107.067 70.1684 107.114 70.2617C107.167 70.355 107.194 70.5084 107.194 70.7217C107.194 70.895 107.18 71.025 107.154 71.1117C107.134 71.1984 107.094 71.2417 107.034 71.2417H105.554C105.387 71.2417 105.274 71.2017 105.214 71.1217C105.154 71.0417 105.124 70.895 105.124 70.6817C105.124 70.5084 105.15 70.3717 105.204 70.2717C105.25 70.1717 105.324 70.1217 105.424 70.1217H106.904ZM109.368 70.5317C109.155 70.8117 108.832 71.0117 108.398 71.1317C108.185 71.185 107.978 71.2184 107.778 71.2317C107.585 71.2384 107.355 71.2417 107.088 71.2417C106.922 71.2417 106.795 71.1984 106.708 71.1117C106.615 71.0184 106.568 70.885 106.568 70.7117C106.568 70.5184 106.598 70.3717 106.658 70.2717C106.718 70.1717 106.802 70.1217 106.908 70.1217C107.182 70.1217 107.395 70.115 107.548 70.1017C107.708 70.0884 107.852 70.045 107.978 69.9717C108.058 69.925 108.125 69.8617 108.178 69.7817C108.232 69.7017 108.272 69.615 108.298 69.5217C108.332 69.4284 108.352 69.3317 108.358 69.2317C108.372 69.1317 108.378 69.0384 108.378 68.9517V66.7717H109.738V69.1617C109.738 69.4484 109.838 69.6817 110.038 69.8617C110.238 70.035 110.512 70.1217 110.858 70.1217C110.958 70.1217 111.032 70.165 111.078 70.2517C111.125 70.3384 111.148 70.4784 111.148 70.6717C111.148 70.905 111.142 71.0584 111.128 71.1317C111.115 71.205 111.085 71.2417 111.038 71.2417C110.912 71.2417 110.768 71.2284 110.608 71.2017C110.455 71.175 110.298 71.135 110.138 71.0817C109.985 71.0217 109.838 70.9484 109.698 70.8617C109.565 70.7684 109.455 70.6584 109.368 70.5317ZM107.448 65.0817C107.448 64.875 107.515 64.705 107.648 64.5717C107.782 64.4384 107.955 64.3717 108.168 64.3717C108.375 64.3717 108.542 64.4384 108.668 64.5717C108.802 64.705 108.868 64.875 108.868 65.0817C108.868 65.295 108.802 65.4684 108.668 65.6017C108.542 65.735 108.375 65.8017 108.168 65.8017C107.955 65.8017 107.782 65.735 107.648 65.6017C107.515 65.4684 107.448 65.295 107.448 65.0817ZM109.218 65.0817C109.218 64.875 109.285 64.705 109.418 64.5717C109.552 64.4384 109.725 64.3717 109.938 64.3717C110.145 64.3717 110.312 64.4384 110.438 64.5717C110.572 64.705 110.638 64.875 110.638 65.0817C110.638 65.295 110.572 65.4684 110.438 65.6017C110.312 65.735 110.145 65.8017 109.938 65.8017C109.725 65.8017 109.552 65.735 109.418 65.6017C109.285 65.4684 109.218 65.295 109.218 65.0817ZM108.328 63.5217C108.328 63.315 108.395 63.145 108.528 63.0117C108.662 62.8784 108.835 62.8117 109.048 62.8117C109.255 62.8117 109.422 62.8784 109.548 63.0117C109.682 63.145 109.748 63.315 109.748 63.5217C109.748 63.735 109.682 63.9084 109.548 64.0417C109.422 64.175 109.255 64.2417 109.048 64.2417C108.835 64.2417 108.662 64.175 108.528 64.0417C108.395 63.9084 108.328 63.735 108.328 63.5217ZM113.314 70.5317C113.1 70.8117 112.777 71.0117 112.344 71.1317C112.13 71.185 111.924 71.2184 111.724 71.2317C111.53 71.2384 111.3 71.2417 111.034 71.2417C110.867 71.2417 110.74 71.1984 110.654 71.1117C110.56 71.0184 110.514 70.885 110.514 70.7117C110.514 70.5184 110.544 70.3717 110.604 70.2717C110.664 70.1717 110.747 70.1217 110.854 70.1217C111.127 70.1217 111.34 70.115 111.494 70.1017C111.654 70.0884 111.797 70.045 111.924 69.9717C112.004 69.925 112.07 69.8617 112.124 69.7817C112.177 69.7017 112.217 69.615 112.244 69.5217C112.277 69.4284 112.297 69.3317 112.304 69.2317C112.317 69.1317 112.324 69.0384 112.324 68.9517V66.7717H113.684V69.1617C113.684 69.4484 113.784 69.6817 113.984 69.8617C114.184 70.035 114.457 70.1217 114.804 70.1217C114.904 70.1217 114.977 70.165 115.024 70.2517C115.07 70.3384 115.094 70.4784 115.094 70.6717C115.094 70.905 115.087 71.0584 115.074 71.1317C115.06 71.205 115.03 71.2417 114.984 71.2417C114.857 71.2417 114.714 71.2284 114.554 71.2017C114.4 71.175 114.244 71.135 114.084 71.0817C113.93 71.0217 113.784 70.9484 113.644 70.8617C113.51 70.7684 113.4 70.6584 113.314 70.5317ZM111.374 65.0817C111.374 64.875 111.44 64.705 111.574 64.5717C111.707 64.4384 111.88 64.3717 112.094 64.3717C112.3 64.3717 112.467 64.4384 112.594 64.5717C112.727 64.705 112.794 64.875 112.794 65.0817C112.794 65.295 112.727 65.4684 112.594 65.6017C112.467 65.735 112.3 65.8017 112.094 65.8017C111.88 65.8017 111.707 65.735 111.574 65.6017C111.44 65.4684 111.374 65.295 111.374 65.0817ZM113.144 65.0817C113.144 64.875 113.21 64.705 113.344 64.5717C113.477 64.4384 113.65 64.3717 113.864 64.3717C114.07 64.3717 114.237 64.4384 114.364 64.5717C114.497 64.705 114.564 64.875 114.564 65.0817C114.564 65.295 114.497 65.4684 114.364 65.6017C114.237 65.735 114.07 65.8017 113.864 65.8017C113.65 65.8017 113.477 65.735 113.344 65.6017C113.21 65.4684 113.144 65.295 113.144 65.0817ZM118.329 71.2417C117.995 71.2417 117.705 71.1884 117.459 71.0817C117.212 70.9684 117.032 70.8117 116.919 70.6117C116.752 70.825 116.512 70.985 116.199 71.0917C115.892 71.1917 115.485 71.2417 114.979 71.2417C114.812 71.2417 114.685 71.1984 114.599 71.1117C114.505 71.0184 114.459 70.885 114.459 70.7117C114.459 70.5184 114.489 70.3717 114.549 70.2717C114.609 70.1717 114.692 70.1217 114.799 70.1217C115.179 70.1217 115.449 70.0584 115.609 69.9317C115.775 69.7984 115.859 69.555 115.859 69.2017V67.6417H117.219V69.3217C117.219 69.4284 117.229 69.5317 117.249 69.6317C117.269 69.725 117.302 69.8084 117.349 69.8817C117.402 69.955 117.479 70.015 117.579 70.0617C117.679 70.1017 117.805 70.1217 117.959 70.1217C118.205 70.1217 118.375 70.0617 118.469 69.9417C118.569 69.815 118.619 69.5684 118.619 69.2017V67.6417H119.979V69.3217C119.979 69.4284 119.989 69.5317 120.009 69.6317C120.029 69.725 120.065 69.8084 120.119 69.8817C120.172 69.955 120.245 70.015 120.339 70.0617C120.439 70.1017 120.565 70.1217 120.719 70.1217C120.965 70.1217 121.135 70.0617 121.229 69.9417C121.329 69.8217 121.379 69.575 121.379 69.2017V66.7717H122.739V69.5217C122.739 70.0684 122.595 70.4917 122.309 70.7917C122.022 71.0917 121.615 71.2417 121.089 71.2417C120.755 71.2417 120.465 71.1884 120.219 71.0817C119.972 70.9684 119.795 70.815 119.689 70.6217C119.389 71.035 118.935 71.2417 118.329 71.2417ZM125.354 63.8917V71.2417H123.984V63.8917H125.354Z" fill="#61A7C6"/>
<path d="M5.38306 81.0902H6.55106V86.8022H5.38306V81.0902ZM11.0931 85.6502H11.1091V81.0902H12.2051V86.8022H10.4611L8.66113 82.1782H8.64513V86.8022H7.55713V81.0902H9.35713L11.0931 85.6502ZM12.6156 81.0902H13.8956L15.3036 85.6822H15.3196L16.7356 81.0902H17.9996L16.0316 86.8022H14.5756L12.6156 81.0902ZM18.4053 81.0902H21.8453V82.0262H19.5733V83.4182H21.6613V84.3542H19.5733V85.8662H21.9173V86.8022H18.4053V81.0902ZM25.69 82.1382C25.4873 82.0636 25.282 82.0102 25.074 81.9782C24.866 81.9462 24.6633 81.9302 24.466 81.9302C24.3487 81.9302 24.234 81.9409 24.122 81.9622C24.0153 81.9782 23.9193 82.0102 23.834 82.0582C23.7487 82.1062 23.6793 82.1702 23.626 82.2502C23.578 82.3249 23.554 82.4209 23.554 82.5382C23.554 82.6396 23.5753 82.7302 23.618 82.8102C23.6607 82.8849 23.7247 82.9569 23.81 83.0262C23.9007 83.0956 24.0127 83.1649 24.146 83.2342C24.2847 83.2982 24.4473 83.3676 24.634 83.4422C24.8687 83.5382 25.082 83.6396 25.274 83.7462C25.466 83.8476 25.634 83.9676 25.778 84.1062C25.922 84.2396 26.0313 84.3969 26.106 84.5782C26.1807 84.7542 26.218 84.9676 26.218 85.2182C26.218 85.5009 26.1593 85.7489 26.042 85.9622C25.93 86.1756 25.7753 86.3516 25.578 86.4902C25.3807 86.6289 25.154 86.7329 24.898 86.8022C24.6473 86.8662 24.3833 86.8982 24.106 86.8982C23.8447 86.8982 23.562 86.8742 23.258 86.8262C22.9593 86.7836 22.6633 86.7116 22.37 86.6102L22.578 85.6582C22.8447 85.7649 23.106 85.8422 23.362 85.8902C23.6233 85.9382 23.858 85.9622 24.066 85.9622C24.386 85.9622 24.6287 85.9089 24.794 85.8022C24.9593 85.6902 25.0447 85.5222 25.05 85.2982C25.05 85.1916 25.0287 85.0982 24.986 85.0182C24.9433 84.9329 24.874 84.8556 24.778 84.7862C24.6873 84.7116 24.57 84.6396 24.426 84.5702C24.2873 84.5009 24.122 84.4289 23.93 84.3542C23.7007 84.2636 23.4927 84.1649 23.306 84.0582C23.1193 83.9516 22.9567 83.8316 22.818 83.6982C22.6793 83.5596 22.5727 83.4049 22.498 83.2342C22.4233 83.0636 22.386 82.8689 22.386 82.6502C22.386 82.3569 22.4447 82.1062 22.562 81.8982C22.6793 81.6849 22.834 81.5116 23.026 81.3782C23.2233 81.2449 23.4393 81.1489 23.674 81.0902C23.914 81.0262 24.154 80.9942 24.394 80.9942C24.6713 80.9942 24.938 81.0129 25.194 81.0502C25.45 81.0822 25.682 81.1329 25.89 81.2022L25.69 82.1382ZM27.9169 82.0262H26.3969V81.0902H30.5729V82.0262H29.0849V86.8022H27.9169V82.0262ZM32.8828 81.0902H34.0508V86.8022H32.8828V81.0902ZM38.5928 85.6502H38.6088V81.0902H39.7048V86.8022H37.9608L36.1608 82.1782H36.1448V86.8022H35.0568V81.0902H36.8568L38.5928 85.6502ZM44.0414 84.6262L41.9374 81.0902H43.3054L44.6334 83.5222L45.9694 81.0902H47.3054L45.2094 84.6262V86.8022H44.0414V84.6262ZM52.4578 83.9542C52.4578 84.3809 52.3991 84.7756 52.2818 85.1382C52.1644 85.4956 51.9911 85.8049 51.7618 86.0662C51.5378 86.3276 51.2578 86.5329 50.9218 86.6822C50.5911 86.8262 50.2098 86.8982 49.7778 86.8982C49.3458 86.8982 48.9618 86.8262 48.6258 86.6822C48.2951 86.5329 48.0151 86.3276 47.7858 86.0662C47.5618 85.8049 47.3911 85.4956 47.2738 85.1382C47.1564 84.7756 47.0978 84.3809 47.0978 83.9542C47.0978 83.5222 47.1564 83.1276 47.2738 82.7702C47.3911 82.4076 47.5618 82.0956 47.7858 81.8342C48.0098 81.5676 48.2898 81.3622 48.6258 81.2182C48.9671 81.0689 49.3511 80.9942 49.7778 80.9942C50.2098 80.9942 50.5938 81.0689 50.9298 81.2182C51.2658 81.3622 51.5458 81.5676 51.7698 81.8342C51.9991 82.0956 52.1698 82.4076 52.2818 82.7702C52.3991 83.1276 52.4578 83.5222 52.4578 83.9542ZM51.2898 83.9542C51.2898 83.6769 51.2578 83.4156 51.1938 83.1702C51.1351 82.9196 51.0444 82.7036 50.9218 82.5222C50.8044 82.3409 50.6498 82.1969 50.4578 82.0902C50.2658 81.9836 50.0391 81.9302 49.7778 81.9302C49.5218 81.9302 49.2951 81.9836 49.0978 82.0902C48.9058 82.1969 48.7484 82.3409 48.6258 82.5222C48.5084 82.7036 48.4178 82.9196 48.3538 83.1702C48.2951 83.4156 48.2658 83.6769 48.2658 83.9542C48.2658 84.2316 48.2951 84.4929 48.3538 84.7382C48.4178 84.9836 48.5111 85.1969 48.6338 85.3782C48.7618 85.5596 48.9191 85.7036 49.1058 85.8102C49.2978 85.9116 49.5244 85.9622 49.7858 85.9622C50.0471 85.9622 50.2711 85.9116 50.4578 85.8102C50.6498 85.7036 50.8071 85.5596 50.9298 85.3782C51.0524 85.1969 51.1431 84.9836 51.2018 84.7382C51.2604 84.4929 51.2898 84.2316 51.2898 83.9542ZM57.7725 85.1142C57.7725 85.4022 57.7138 85.6582 57.5965 85.8822C57.4845 86.1062 57.3245 86.2929 57.1165 86.4422C56.9138 86.5916 56.6712 86.7062 56.3885 86.7862C56.1112 86.8609 55.8098 86.8982 55.4845 86.8982C55.1592 86.8982 54.8578 86.8609 54.5805 86.7862C54.3032 86.7062 54.0632 86.5916 53.8605 86.4422C53.6578 86.2929 53.4978 86.1062 53.3805 85.8822C53.2685 85.6582 53.2125 85.4022 53.2125 85.1142V81.0902H54.3805V84.9702C54.3858 85.3222 54.4898 85.5782 54.6925 85.7382C54.8952 85.8929 55.1565 85.9676 55.4765 85.9622C55.6365 85.9622 55.7832 85.9436 55.9165 85.9062C56.0498 85.8689 56.1672 85.8102 56.2685 85.7302C56.3752 85.6502 56.4578 85.5462 56.5165 85.4182C56.5752 85.2902 56.6045 85.1409 56.6045 84.9702V81.0902H57.7725V85.1142ZM58.7162 81.0902H60.9322C61.1882 81.0902 61.4362 81.1169 61.6762 81.1702C61.9162 81.2236 62.1269 81.3116 62.3082 81.4342C62.4949 81.5516 62.6415 81.7116 62.7482 81.9142C62.8602 82.1116 62.9162 82.3542 62.9162 82.6422C62.9162 82.9782 62.8309 83.2582 62.6602 83.4822C62.4949 83.7009 62.2575 83.8636 61.9482 83.9702V83.9862C62.0389 84.0182 62.1189 84.0582 62.1882 84.1062C62.2575 84.1542 62.3189 84.2182 62.3722 84.2982C62.4255 84.3729 62.4762 84.4689 62.5242 84.5862C62.5722 84.7036 62.6202 84.8556 62.6682 85.0422C62.7589 85.3302 62.8469 85.6209 62.9322 85.9142C63.0175 86.2022 63.1055 86.4982 63.1962 86.8022H61.9402C61.9135 86.7009 61.8815 86.5836 61.8442 86.4502C61.8122 86.3116 61.7775 86.1729 61.7402 86.0342C61.7082 85.8956 61.6762 85.7649 61.6442 85.6422C61.6122 85.5142 61.5829 85.4022 61.5562 85.3062C61.5135 85.1516 61.4682 85.0236 61.4202 84.9222C61.3722 84.8156 61.3082 84.7329 61.2282 84.6742C61.1535 84.6102 61.0522 84.5649 60.9242 84.5382C60.7962 84.5116 60.6309 84.4982 60.4282 84.4982H59.8842V86.8022H58.7162V81.0902ZM59.8842 83.5622H60.6522C60.8122 83.5622 60.9589 83.5516 61.0922 83.5302C61.2255 83.5036 61.3402 83.4609 61.4362 83.4022C61.5375 83.3436 61.6149 83.2662 61.6682 83.1702C61.7215 83.0689 61.7482 82.9436 61.7482 82.7942C61.7482 82.6396 61.7189 82.5116 61.6602 82.4102C61.6015 82.3089 61.5215 82.2316 61.4202 82.1782C61.3242 82.1196 61.2095 82.0796 61.0762 82.0582C60.9482 82.0369 60.8175 82.0262 60.6842 82.0262H59.8842V83.5622ZM65.5409 81.0902H66.7089V83.4182H68.9009V81.0902H70.0689V86.8022H68.9009V84.3542H66.7089V86.8022H65.5409V81.0902ZM71.0665 81.0902H74.5065V82.0262H72.2345V83.4182H74.3225V84.3542H72.2345V85.8662H74.5785V86.8022H71.0665V81.0902ZM75.9272 86.8022H74.6872L76.7432 81.0902H78.3432L80.3912 86.8022H79.1352L78.6232 85.4102H76.4232L75.9272 86.8022ZM76.6952 84.4662H78.3512L77.5272 82.0022L76.6952 84.4662ZM80.7896 81.0902H81.9576V85.8662H84.2296V86.8022H80.7896V81.0902ZM84.9006 82.0262H83.3806V81.0902H87.5566V82.0262H86.0686V86.8022H84.9006V82.0262ZM88.0284 81.0902H89.1964V83.4182H91.3884V81.0902H92.5564V86.8022H91.3884V84.3542H89.1964V86.8022H88.0284V81.0902ZM98.7041 82.1542H98.6881L97.8881 86.8022H96.2481L95.0081 81.0902H96.2801L97.0961 85.7622H97.1121L97.8481 81.0902H99.5681L100.28 85.7622H100.296L101.136 81.0902H102.376L101.136 86.8022H99.4881L98.7041 82.1542ZM102.996 81.0902H104.164V86.8022H102.996V81.0902ZM106.146 82.0262H104.626V81.0902H108.802V82.0262H107.314V86.8022H106.146V82.0262ZM109.274 81.0902H110.442V83.4182H112.634V81.0902H113.802V86.8022H112.634V84.3542H110.442V86.8022H109.274V81.0902ZM121.133 85.1142C121.133 85.4022 121.075 85.6582 120.957 85.8822C120.845 86.1062 120.685 86.2929 120.477 86.4422C120.275 86.5916 120.032 86.7062 119.749 86.7862C119.472 86.8609 119.171 86.8982 118.845 86.8982C118.52 86.8982 118.219 86.8609 117.941 86.7862C117.664 86.7062 117.424 86.5916 117.221 86.4422C117.019 86.2929 116.859 86.1062 116.741 85.8822C116.629 85.6582 116.573 85.4022 116.573 85.1142V81.0902H117.741V84.9702C117.747 85.3222 117.851 85.5782 118.053 85.7382C118.256 85.8929 118.517 85.9676 118.837 85.9622C118.997 85.9622 119.144 85.9436 119.277 85.9062C119.411 85.8689 119.528 85.8102 119.629 85.7302C119.736 85.6502 119.819 85.5462 119.877 85.4182C119.936 85.2902 119.965 85.1409 119.965 84.9702V81.0902H121.133V85.1142ZM125.133 82.1382C124.93 82.0636 124.725 82.0102 124.517 81.9782C124.309 81.9462 124.106 81.9302 123.909 81.9302C123.792 81.9302 123.677 81.9409 123.565 81.9622C123.458 81.9782 123.362 82.0102 123.277 82.0582C123.192 82.1062 123.122 82.1702 123.069 82.2502C123.021 82.3249 122.997 82.4209 122.997 82.5382C122.997 82.6396 123.018 82.7302 123.061 82.8102C123.104 82.8849 123.168 82.9569 123.253 83.0262C123.344 83.0956 123.456 83.1649 123.589 83.2342C123.728 83.2982 123.89 83.3676 124.077 83.4422C124.312 83.5382 124.525 83.6396 124.717 83.7462C124.909 83.8476 125.077 83.9676 125.221 84.1062C125.365 84.2396 125.474 84.3969 125.549 84.5782C125.624 84.7542 125.661 84.9676 125.661 85.2182C125.661 85.5009 125.602 85.7489 125.485 85.9622C125.373 86.1756 125.218 86.3516 125.021 86.4902C124.824 86.6289 124.597 86.7329 124.341 86.8022C124.09 86.8662 123.826 86.8982 123.549 86.8982C123.288 86.8982 123.005 86.8742 122.701 86.8262C122.402 86.7836 122.106 86.7116 121.813 86.6102L122.021 85.6582C122.288 85.7649 122.549 85.8422 122.805 85.8902C123.066 85.9382 123.301 85.9622 123.509 85.9622C123.829 85.9622 124.072 85.9089 124.237 85.8022C124.402 85.6902 124.488 85.5222 124.493 85.2982C124.493 85.1916 124.472 85.0982 124.429 85.0182C124.386 84.9329 124.317 84.8556 124.221 84.7862C124.13 84.7116 124.013 84.6396 123.869 84.5702C123.73 84.5009 123.565 84.4289 123.373 84.3542C123.144 84.2636 122.936 84.1649 122.749 84.0582C122.562 83.9516 122.4 83.8316 122.261 83.6982C122.122 83.5596 122.016 83.4049 121.941 83.2342C121.866 83.0636 121.829 82.8689 121.829 82.6502C121.829 82.3569 121.888 82.1062 122.005 81.8982C122.122 81.6849 122.277 81.5116 122.469 81.3782C122.666 81.2449 122.882 81.1489 123.117 81.0902C123.357 81.0262 123.597 80.9942 123.837 80.9942C124.114 80.9942 124.381 81.0129 124.637 81.0502C124.893 81.0822 125.125 81.1329 125.333 81.2022L125.133 82.1382Z" fill="#61A7C6"/>
</svg>
