<svg width="25" height="32" viewBox="0 0 25 32" fill="none" xmlns="http://www.w3.org/2000/svg">
<path fill-rule="evenodd" clip-rule="evenodd" d="M18.4512 8.55819C18.4512 8.85425 18.3336 9.13818 18.1243 9.34752C17.9149 9.55686 17.631 9.67447 17.335 9.67447C17.0389 9.67447 16.755 9.55686 16.5456 9.34752C16.3363 9.13818 16.2187 8.85425 16.2187 8.55819V6.32563C16.2187 5.2401 15.7875 4.19902 15.0199 3.43143C14.2523 2.66384 13.2112 2.23261 12.1257 2.23261C11.0401 2.23261 9.99905 2.66384 9.23146 3.43143C8.46387 4.19902 8.03264 5.2401 8.03264 6.32563V8.55819C8.03264 8.85425 7.91503 9.13818 7.70569 9.34752C7.49634 9.55686 7.21241 9.67447 6.91636 9.67447C6.6203 9.67447 6.33637 9.55686 6.12703 9.34752C5.91769 9.13818 5.80008 8.85425 5.80008 8.55819V6.32563C5.80008 4.64799 6.46652 3.03905 7.6528 1.85277C8.83908 0.666497 10.448 5.34058e-05 12.1257 5.34058e-05C13.8033 5.34058e-05 15.4122 0.666497 16.5985 1.85277C17.7848 3.03905 18.4512 4.64799 18.4512 6.32563V8.55819Z" fill="white"/>
<path fill-rule="evenodd" clip-rule="evenodd" d="M23.0533 10.5675L24.244 28.428C24.2739 28.8854 24.2097 29.3441 24.0554 29.7757C23.9011 30.2073 23.6599 30.6027 23.3467 30.9375C23.0336 31.2723 22.6552 31.5393 22.2348 31.722C21.8144 31.9048 21.361 31.9994 20.9026 32.0001H3.34874C2.89022 31.9998 2.43663 31.9055 2.01604 31.7229C1.59545 31.5403 1.21682 31.2733 0.903596 30.9384C0.590368 30.6036 0.349207 30.208 0.195044 29.7762C0.0408811 29.3444 -0.0230027 28.8855 0.00734804 28.428L1.19805 10.5675C1.25468 9.71987 1.63134 8.92544 2.25174 8.34511C2.87215 7.76477 3.68992 7.44192 4.53944 7.44192H19.7119C20.5614 7.44192 21.3792 7.76477 21.9996 8.34511C22.62 8.92544 22.9967 9.71987 23.0533 10.5675ZM15.8258 14.0324C15.493 14.7319 14.9688 15.3227 14.3139 15.7364C13.659 16.15 12.9003 16.3696 12.1257 16.3696C11.3511 16.3696 10.5924 16.15 9.93746 15.7364C9.28257 15.3227 8.75835 14.7319 8.42558 14.0324C8.36264 13.9 8.27424 13.7813 8.16542 13.683C8.0566 13.5848 7.92949 13.5089 7.79135 13.4598C7.65321 13.4106 7.50675 13.3892 7.36032 13.3967C7.21389 13.4041 7.07037 13.4404 6.93795 13.5033C6.80553 13.5662 6.6868 13.6547 6.58855 13.7635C6.49029 13.8723 6.41443 13.9994 6.3653 14.1375C6.31616 14.2757 6.29472 14.4221 6.30219 14.5686C6.30966 14.715 6.3459 14.8585 6.40884 14.9909C6.92148 16.0734 7.73088 16.988 8.7429 17.6285C9.75493 18.269 10.928 18.609 12.1257 18.609C13.3233 18.609 14.4964 18.269 15.5084 17.6285C16.5205 16.988 17.3299 16.0734 17.8425 14.9909C17.9054 14.8585 17.9417 14.715 17.9492 14.5686C17.9566 14.4221 17.9352 14.2757 17.886 14.1375C17.8369 13.9994 17.7611 13.8723 17.6628 13.7635C17.5645 13.6547 17.4458 13.5662 17.3134 13.5033C17.181 13.4404 17.0375 13.4041 16.891 13.3967C16.7446 13.3892 16.5981 13.4106 16.46 13.4598C16.3219 13.5089 16.1947 13.5848 16.0859 13.683C15.9771 13.7813 15.8887 13.9 15.8258 14.0324Z" fill="white"/>
</svg>
