<svg width="16" height="19" viewBox="0 0 16 19" fill="none" xmlns="http://www.w3.org/2000/svg">
<path d="M2.91853 1.77071C3.8407 1.0371 4.91894 0.511478 6.0755 0.231751C7.23206 -0.047975 8.4381 -0.0748334 9.60664 0.153113C11.1091 0.452398 12.4914 1.165 13.5888 2.20602C14.6862 3.24704 15.4525 4.57261 15.7963 6.02483C16.1402 7.47704 16.0472 8.99468 15.5283 10.397C15.0094 11.7993 14.0866 13.0271 12.8698 13.9342C11.4805 14.9221 10.2976 16.1581 9.38441 17.5761L8.76218 18.5814C8.68315 18.7091 8.57147 18.8148 8.43798 18.8881C8.30449 18.9615 8.15374 19 8.00039 19C7.84703 19 7.69628 18.9615 7.5628 18.8881C7.42931 18.8148 7.31763 18.7091 7.2386 18.5814L6.64214 17.6159C5.84692 16.2577 4.76262 15.08 3.46165 14.1613C2.44154 13.4794 1.59849 12.5765 0.999005 11.5239C0.399521 10.4712 0.060009 9.29764 0.00725651 8.0957C-0.045496 6.89375 0.189953 5.69634 0.695028 4.59794C1.2001 3.49953 1.96099 2.53019 2.91764 1.76639L2.91853 1.77071ZM8.00128 11.2284C8.70451 11.2284 9.39195 11.0258 9.97667 10.6462C10.5614 10.2666 11.0171 9.72709 11.2862 9.09585C11.5554 8.46461 11.6258 7.77002 11.4886 7.0999C11.3514 6.42978 11.0127 5.81424 10.5155 5.33111C10.0182 4.84799 9.38466 4.51897 8.69494 4.38568C8.00522 4.25238 7.29031 4.3208 6.6406 4.58226C5.9909 4.84373 5.43559 5.28651 5.04489 5.8546C4.6542 6.4227 4.44567 7.0906 4.44567 7.77385C4.44567 8.69005 4.82027 9.56873 5.48708 10.2166C6.15389 10.8644 7.05827 11.2284 8.00128 11.2284Z" fill="#61A7C6"/>
</svg>
