<svg width="91" height="69" viewBox="0 0 91 69" fill="none" xmlns="http://www.w3.org/2000/svg">
<path d="M23.5953 0.510159L35.7383 0.584608C39.5744 0.608118 42.4113 0.901996 44.253 1.46624C46.0946 2.03049 47.4151 3.15898 48.2184 4.8478C49.0216 6.54054 48.9668 9.25598 48.0499 12.9941C47.4308 15.5254 46.5687 17.2847 45.4677 18.2761C44.3666 19.2674 42.4858 20.0237 39.833 20.5409C42.5015 21.1483 44.1707 22.1357 44.8407 23.5071C45.5069 24.8786 45.499 26.971 44.8094 29.7883L43.8259 33.8007C43.1088 36.7238 42.2193 38.8907 41.1496 40.2934C40.0838 41.6962 38.6928 42.6523 36.9883 43.1617C35.2799 43.6672 31.9806 43.9062 27.0826 43.8748L13 43.7847L23.5953 0.510159ZM29.9548 24.3535L26.9925 36.4652C28.7205 36.4221 29.8765 36.1792 30.4564 35.7364C31.0363 35.2936 31.5418 34.2004 31.9689 32.4528L32.9563 28.4168C33.4108 26.5635 33.4735 25.4389 33.1444 25.0431C32.8152 24.6474 31.7534 24.4201 29.9548 24.3535ZM33.9594 7.99034L31.6045 17.6139C32.1295 17.5982 32.537 17.5943 32.827 17.5943C34.0221 17.6021 34.8489 17.3357 35.3112 16.7949C35.7697 16.2542 36.3143 14.6986 36.9452 12.1321C37.2783 10.7763 37.3723 9.82806 37.2352 9.28341C37.098 8.73875 36.8316 8.39394 36.4319 8.24896C36.0322 8.10398 35.2094 8.01777 33.9594 7.99426V7.99034Z" fill="white"/>
<path d="M71.8031 19.671C73.441 20.2353 74.5421 21.1483 75.0985 22.41C75.6588 23.6717 75.3728 26.6222 74.2364 31.2577C73.394 34.698 72.3164 37.3664 71.0038 39.259C69.6911 41.1516 67.873 42.5896 65.5494 43.5653C63.2258 44.541 60.432 45.019 57.1758 44.9994C53.473 44.9759 50.7105 44.3842 48.8806 43.2205C47.0507 42.0567 46.0084 40.6422 45.7498 38.969C45.4912 37.2998 45.8674 34.4041 46.8744 30.2859L47.7129 26.8652L59.3936 26.9396L57.6735 33.9692C57.215 35.8422 57.0465 37.0294 57.1601 37.5388C57.2777 38.0482 57.7479 38.3068 58.5786 38.3108C59.4837 38.3147 60.1616 38.0012 60.6083 37.3586C61.055 36.7199 61.6075 35.0428 62.2697 32.3352L63.0025 29.3416C63.41 27.6841 63.504 26.4694 63.2846 25.7014C63.0651 24.9334 62.591 24.424 61.8622 24.1811C61.1295 23.9342 59.6326 23.7892 57.3678 23.7383L58.9038 17.4571C61.678 17.4728 63.4178 17.3866 64.1231 17.1946C64.8245 17.0026 65.4044 16.5794 65.855 15.9211C66.3056 15.2629 66.7014 14.2323 67.0462 12.8217L67.634 10.4158C68.0062 8.89941 68.0807 7.90022 67.8612 7.41826C67.6418 6.9363 67.1755 6.68944 66.4624 6.68552C65.6552 6.6816 65.0361 6.93238 64.6129 7.43785C64.1897 7.94332 63.7744 9.02479 63.3708 10.6823L62.5009 14.2362L50.8202 14.1618L51.7214 10.4707C52.7324 6.33679 54.4369 3.5469 56.8388 2.10886C59.2369 0.67865 62.6655 -0.0266585 67.1167 0.000770107C72.6887 0.0360355 76.2191 1.06657 77.712 3.09237C79.2049 5.11817 79.5145 7.91981 78.6368 11.5012C78.0451 13.9228 77.2575 15.6704 76.2818 16.744C75.3062 17.8176 73.8093 18.7933 71.7992 19.671H71.8031Z" fill="white"/>
<path d="M2.855 57.56C2.855 57.7147 2.84967 57.8267 2.839 57.896C2.83367 57.9653 2.823 58 2.807 58C2.56167 58 2.32433 57.984 2.095 57.952C1.86567 57.9147 1.65767 57.8507 1.471 57.76C1.28967 57.664 1.14833 57.536 1.047 57.376C0.945667 57.2107 0.895 57.0107 0.895 56.776V52.12H1.991V56.424C1.991 56.552 2.007 56.664 2.039 56.76C2.07633 56.8507 2.127 56.9227 2.191 56.976C2.26033 57.024 2.335 57.0587 2.415 57.08C2.495 57.096 2.57767 57.104 2.663 57.104C2.73233 57.104 2.78033 57.1413 2.807 57.216C2.839 57.2907 2.855 57.4053 2.855 57.56ZM3.84806 57.104C3.92273 57.104 3.97873 57.1413 4.01606 57.216C4.05873 57.2907 4.08006 57.4133 4.08006 57.584C4.08006 57.7227 4.0694 57.8267 4.04806 57.896C4.03206 57.9653 4.00006 58 3.95206 58H2.76806C2.63473 58 2.54406 57.968 2.49606 57.904C2.44806 57.84 2.42406 57.7227 2.42406 57.552C2.42406 57.4133 2.4454 57.304 2.48806 57.224C2.5254 57.144 2.58406 57.104 2.66406 57.104H3.84806ZM5.03556 57.104C5.11023 57.104 5.16623 57.1413 5.20356 57.216C5.24623 57.2907 5.26756 57.4133 5.26756 57.584C5.26756 57.7227 5.2569 57.8267 5.23556 57.896C5.21956 57.9653 5.18756 58 5.13956 58H3.95556C3.82223 58 3.73156 57.968 3.68356 57.904C3.63556 57.84 3.61156 57.7227 3.61156 57.552C3.61156 57.4133 3.6329 57.304 3.67556 57.224C3.7129 57.144 3.77156 57.104 3.85156 57.104H5.03556ZM6.22306 57.104C6.29773 57.104 6.35373 57.1413 6.39106 57.216C6.43373 57.2907 6.45506 57.4133 6.45506 57.584C6.45506 57.7227 6.4444 57.8267 6.42306 57.896C6.40706 57.9653 6.37506 58 6.32706 58H5.14306C5.00973 58 4.91906 57.968 4.87106 57.904C4.82306 57.84 4.79906 57.7227 4.79906 57.552C4.79906 57.4133 4.8204 57.304 4.86306 57.224C4.9004 57.144 4.95906 57.104 5.03906 57.104H6.22306ZM7.41056 57.104C7.48523 57.104 7.54123 57.1413 7.57856 57.216C7.62123 57.2907 7.64256 57.4133 7.64256 57.584C7.64256 57.7227 7.6319 57.8267 7.61056 57.896C7.59456 57.9653 7.56256 58 7.51456 58H6.33056C6.19723 58 6.10656 57.968 6.05856 57.904C6.01056 57.84 5.98656 57.7227 5.98656 57.552C5.98656 57.4133 6.0079 57.304 6.05056 57.224C6.0879 57.144 6.14656 57.104 6.22656 57.104H7.41056ZM8.27006 53.072C8.27006 52.9067 8.3234 52.7707 8.43006 52.664C8.54206 52.5573 8.68073 52.504 8.84606 52.504C9.0114 52.504 9.14473 52.5573 9.24606 52.664C9.35273 52.7707 9.40606 52.9067 9.40606 53.072C9.40606 53.2427 9.35273 53.3813 9.24606 53.488C9.14473 53.5947 9.0114 53.648 8.84606 53.648C8.6754 53.648 8.53673 53.5947 8.43006 53.488C8.3234 53.376 8.27006 53.2373 8.27006 53.072ZM7.44606 57.104C7.6114 57.104 7.7474 57.0907 7.85406 57.064C7.96606 57.032 8.0514 56.9867 8.11006 56.928C8.16873 56.864 8.20873 56.7867 8.23006 56.696C8.2514 56.6053 8.26206 56.496 8.26206 56.368V54.424H9.35006V56.56C9.35006 56.8107 9.32073 57.024 9.26206 57.2C9.2034 57.376 9.10473 57.5253 8.96606 57.648C8.83273 57.7653 8.65406 57.8533 8.43006 57.912C8.20606 57.9707 7.92606 58 7.59006 58C7.4514 58 7.3474 57.9653 7.27806 57.896C7.20873 57.8213 7.17406 57.7147 7.17406 57.576C7.17406 57.4267 7.19806 57.312 7.24606 57.232C7.28873 57.1467 7.3554 57.104 7.44606 57.104ZM12.3316 57.56C12.3316 57.7147 12.3262 57.8267 12.3156 57.896C12.3102 57.9653 12.2996 58 12.2836 58C12.0382 58 11.8009 57.984 11.5716 57.952C11.3422 57.9147 11.1342 57.8507 10.9476 57.76C10.7662 57.664 10.6249 57.536 10.5236 57.376C10.4222 57.2107 10.3716 57.0107 10.3716 56.776V52.12H11.4676V56.424C11.4676 56.552 11.4836 56.664 11.5156 56.76C11.5529 56.8507 11.6036 56.9227 11.6676 56.976C11.7369 57.024 11.8116 57.0587 11.8916 57.08C11.9716 57.096 12.0542 57.104 12.1396 57.104C12.2089 57.104 12.2569 57.1413 12.2836 57.216C12.3156 57.2907 12.3316 57.4053 12.3316 57.56ZM12.2846 58C12.146 58 12.042 57.9627 11.9726 57.888C11.9033 57.8133 11.8686 57.7093 11.8686 57.576C11.8686 57.4213 11.8926 57.304 11.9406 57.224C11.9886 57.144 12.0553 57.104 12.1406 57.104H12.9886C13.1433 57.104 13.282 57.0933 13.4046 57.072C13.5273 57.0507 13.6233 57.0267 13.6926 57C13.5646 56.8667 13.45 56.7493 13.3486 56.648C13.2473 56.5467 13.1486 56.456 13.0526 56.376C12.9566 56.2907 12.8526 56.208 12.7406 56.128C12.6286 56.048 12.498 55.9627 12.3486 55.872C12.354 55.8187 12.362 55.744 12.3726 55.648C12.3886 55.552 12.4046 55.4533 12.4206 55.352C12.4366 55.2507 12.4526 55.1573 12.4686 55.072C12.49 54.9867 12.5086 54.9227 12.5246 54.88C12.6153 54.8213 12.7273 54.7627 12.8606 54.704C12.9993 54.64 13.1486 54.584 13.3086 54.536C13.4686 54.4827 13.634 54.44 13.8046 54.408C13.9753 54.376 14.146 54.36 14.3166 54.36C14.5726 54.36 14.8153 54.3867 15.0446 54.44C15.274 54.488 15.474 54.5653 15.6446 54.672C15.8153 54.7733 15.9486 54.9013 16.0446 55.056C16.146 55.2053 16.1966 55.384 16.1966 55.592C16.1966 55.7307 16.17 55.8693 16.1166 56.008C16.0633 56.1413 15.9886 56.272 15.8926 56.4C15.802 56.5227 15.6926 56.64 15.5646 56.752C15.4366 56.864 15.298 56.9653 15.1486 57.056C15.2126 57.0773 15.3006 57.0907 15.4126 57.096C15.53 57.1013 15.626 57.104 15.7006 57.104H16.5166C16.5913 57.104 16.6473 57.1387 16.6846 57.208C16.7273 57.2773 16.7486 57.3947 16.7486 57.56C16.7486 57.7467 16.7433 57.8667 16.7326 57.92C16.722 57.9733 16.698 58 16.6606 58H15.5326C15.25 58 15.0046 57.9707 14.7966 57.912C14.594 57.8533 14.4286 57.7787 14.3006 57.688C14.1086 57.7787 13.89 57.8533 13.6446 57.912C13.3993 57.9707 13.1486 58 12.8926 58H12.2846ZM14.3166 55.272C14.2206 55.272 14.1246 55.28 14.0286 55.296C13.9326 55.312 13.842 55.3307 13.7566 55.352C13.6713 55.3733 13.594 55.3973 13.5246 55.424C13.4606 55.4507 13.4126 55.4747 13.3806 55.496C13.61 55.6773 13.8073 55.8613 13.9726 56.048C14.138 56.2347 14.2873 56.4213 14.4206 56.608C14.5006 56.56 14.5806 56.504 14.6606 56.44C14.7406 56.3707 14.8126 56.2987 14.8766 56.224C14.9406 56.144 14.9913 56.064 15.0286 55.984C15.066 55.8987 15.0846 55.8107 15.0846 55.72C15.0846 55.672 15.0713 55.6213 15.0446 55.568C15.018 55.5147 14.9726 55.4667 14.9086 55.424C14.85 55.376 14.77 55.3387 14.6686 55.312C14.5726 55.2853 14.4553 55.272 14.3166 55.272ZM16.6596 58C16.521 58 16.417 57.9653 16.3476 57.896C16.2783 57.8213 16.2436 57.7147 16.2436 57.576C16.2436 57.4213 16.2676 57.304 16.3156 57.224C16.3636 57.144 16.4303 57.104 16.5156 57.104H16.7236C16.825 57.104 16.905 57.0853 16.9636 57.048C17.0276 57.0107 17.0756 56.96 17.1076 56.896C17.145 56.832 17.1716 56.7573 17.1876 56.672C17.209 56.5813 17.2276 56.4747 17.2436 56.352C17.265 56.0587 17.321 55.7893 17.4116 55.544C17.5076 55.2987 17.633 55.088 17.7876 54.912C17.9476 54.736 18.137 54.6 18.3556 54.504C18.5796 54.408 18.825 54.36 19.0916 54.36C19.3956 54.36 19.665 54.4053 19.8996 54.496C20.1343 54.5867 20.329 54.712 20.4836 54.872C20.6436 55.032 20.7636 55.2267 20.8436 55.456C20.929 55.6853 20.9716 55.9333 20.9716 56.2C20.9716 56.5253 20.921 56.808 20.8196 57.048C20.7236 57.288 20.5903 57.48 20.4196 57.624C20.249 57.768 20.0596 57.872 19.8516 57.936C19.6436 58 19.433 58.032 19.2196 58.032C18.9796 58.032 18.761 58.0027 18.5636 57.944C18.3663 57.88 18.153 57.7573 17.9236 57.576C17.7903 57.7413 17.6516 57.8533 17.5076 57.912C17.3636 57.9707 17.1663 58 16.9156 58H16.6596ZM19.1316 55.28C18.9876 55.28 18.8623 55.32 18.7556 55.4C18.6543 55.4747 18.5663 55.5787 18.4916 55.712C18.4223 55.84 18.3663 55.9867 18.3236 56.152C18.2863 56.3173 18.2596 56.5013 18.2436 56.704C18.4143 56.8587 18.5663 56.9653 18.6996 57.024C18.8383 57.0827 18.985 57.112 19.1396 57.112C19.3636 57.112 19.5423 57.0347 19.6756 56.88C19.809 56.7253 19.8756 56.5227 19.8756 56.272C19.8756 55.9573 19.809 55.7147 19.6756 55.544C19.5423 55.368 19.361 55.28 19.1316 55.28ZM25.4622 58C25.2063 58 24.9663 57.9733 24.7423 57.92C24.5236 57.8613 24.3316 57.7707 24.1663 57.648C24.0009 57.5253 23.8729 57.3707 23.7823 57.184C23.6916 56.992 23.6463 56.7653 23.6463 56.504C23.6463 56.328 23.6676 56.1253 23.7103 55.896C23.7529 55.6667 23.8223 55.44 23.9183 55.216L24.8943 55.512C24.8303 55.7147 24.7876 55.8747 24.7663 55.992C24.7449 56.104 24.7343 56.2027 24.7343 56.288C24.7343 56.5547 24.8223 56.7573 24.9983 56.896C25.1743 57.0347 25.4329 57.104 25.7743 57.104H28.2223C28.3929 57.104 28.5343 57.0907 28.6463 57.064C28.7583 57.0373 28.8489 56.9867 28.9183 56.912C28.9876 56.8373 29.0356 56.7387 29.0623 56.616C29.0889 56.4933 29.1023 56.336 29.1023 56.144V52.12H30.1983V56.336C30.1983 56.5653 30.2783 56.752 30.4383 56.896C30.5983 57.0347 30.8169 57.104 31.0943 57.104C31.1743 57.104 31.2329 57.1387 31.2703 57.208C31.3076 57.2773 31.3263 57.3893 31.3263 57.544C31.3263 57.7307 31.3209 57.8533 31.3103 57.912C31.2996 57.9707 31.2756 58 31.2383 58C31.1369 58 31.0276 57.992 30.9103 57.976C30.7983 57.96 30.6836 57.9333 30.5663 57.896C30.4489 57.8533 30.3423 57.8027 30.2463 57.744C30.1503 57.68 30.0623 57.5973 29.9823 57.496C29.8703 57.6613 29.7156 57.7867 29.5183 57.872C29.3209 57.9573 29.0703 58 28.7663 58H25.4622ZM27.2223 54.216C27.4569 54.216 27.6303 54.264 27.7423 54.36C27.8596 54.456 27.9183 54.608 27.9183 54.816V55.168C27.9183 55.3493 27.8676 55.4907 27.7663 55.592C27.6649 55.6933 27.5183 55.744 27.3263 55.744H26.2863V55.232H27.1183C27.2089 55.232 27.2703 55.216 27.3023 55.184C27.3396 55.152 27.3583 55.0907 27.3583 55V54.96C27.3583 54.8693 27.3343 54.808 27.2863 54.776C27.2383 54.7387 27.1663 54.72 27.0703 54.72H26.4303V54.216L27.2063 53.296L27.5903 53.616L27.0863 54.216H27.2223ZM32.2778 57.104C32.3524 57.104 32.4084 57.1413 32.4458 57.216C32.4884 57.2907 32.5098 57.4133 32.5098 57.584C32.5098 57.7227 32.4991 57.8267 32.4778 57.896C32.4618 57.9653 32.4298 58 32.3818 58H31.1978C31.0644 58 30.9737 57.968 30.9257 57.904C30.8777 57.84 30.8537 57.7227 30.8537 57.552C30.8537 57.4133 30.8751 57.304 30.9177 57.224C30.9551 57.144 31.0137 57.104 31.0938 57.104H32.2778ZM33.4653 57.104C33.5399 57.104 33.5959 57.1413 33.6333 57.216C33.6759 57.2907 33.6973 57.4133 33.6973 57.584C33.6973 57.7227 33.6866 57.8267 33.6653 57.896C33.6493 57.9653 33.6173 58 33.5693 58H32.3853C32.2519 58 32.1612 57.968 32.1132 57.904C32.0652 57.84 32.0412 57.7227 32.0412 57.552C32.0412 57.4133 32.0626 57.304 32.1052 57.224C32.1426 57.144 32.2012 57.104 32.2812 57.104H33.4653ZM34.6528 57.104C34.7274 57.104 34.7834 57.1413 34.8208 57.216C34.8634 57.2907 34.8848 57.4133 34.8848 57.584C34.8848 57.7227 34.8741 57.8267 34.8528 57.896C34.8368 57.9653 34.8048 58 34.7568 58H33.5728C33.4394 58 33.3487 57.968 33.3007 57.904C33.2527 57.84 33.2287 57.7227 33.2287 57.552C33.2287 57.4133 33.2501 57.304 33.2927 57.224C33.3301 57.144 33.3887 57.104 33.4688 57.104H34.6528ZM35.8403 57.104C35.9149 57.104 35.9709 57.1413 36.0083 57.216C36.0509 57.2907 36.0723 57.4133 36.0723 57.584C36.0723 57.7227 36.0616 57.8267 36.0403 57.896C36.0243 57.9653 35.9923 58 35.9443 58H34.7603C34.6269 58 34.5362 57.968 34.4882 57.904C34.4402 57.84 34.4162 57.7227 34.4162 57.552C34.4162 57.4133 34.4376 57.304 34.4802 57.224C34.5176 57.144 34.5762 57.104 34.6562 57.104H35.8403ZM37.0278 57.104C37.1024 57.104 37.1584 57.1413 37.1958 57.216C37.2384 57.2907 37.2598 57.4133 37.2598 57.584C37.2598 57.7227 37.2491 57.8267 37.2278 57.896C37.2118 57.9653 37.1798 58 37.1318 58H35.9478C35.8144 58 35.7237 57.968 35.6757 57.904C35.6277 57.84 35.6037 57.7227 35.6037 57.552C35.6037 57.4133 35.6251 57.304 35.6677 57.224C35.7051 57.144 35.7637 57.104 35.8438 57.104H37.0278ZM38.2153 57.104C38.2899 57.104 38.3459 57.1413 38.3833 57.216C38.4259 57.2907 38.4473 57.4133 38.4473 57.584C38.4473 57.7227 38.4366 57.8267 38.4153 57.896C38.3993 57.9653 38.3673 58 38.3193 58H37.1353C37.0019 58 36.9112 57.968 36.8632 57.904C36.8152 57.84 36.7912 57.7227 36.7912 57.552C36.7912 57.4133 36.8126 57.304 36.8552 57.224C36.8926 57.144 36.9512 57.104 37.0312 57.104H38.2153ZM39.4028 57.104C39.4774 57.104 39.5334 57.1413 39.5708 57.216C39.6134 57.2907 39.6348 57.4133 39.6348 57.584C39.6348 57.7227 39.6241 57.8267 39.6028 57.896C39.5868 57.9653 39.5548 58 39.5068 58H38.3228C38.1894 58 38.0987 57.968 38.0507 57.904C38.0027 57.84 37.9787 57.7227 37.9787 57.552C37.9787 57.4133 38.0001 57.304 38.0427 57.224C38.0801 57.144 38.1387 57.104 38.2188 57.104H39.4028ZM40.5903 57.104C40.6649 57.104 40.7209 57.1413 40.7583 57.216C40.8009 57.2907 40.8223 57.4133 40.8223 57.584C40.8223 57.7227 40.8116 57.8267 40.7903 57.896C40.7743 57.9653 40.7423 58 40.6943 58H39.5103C39.3769 58 39.2862 57.968 39.2382 57.904C39.1902 57.84 39.1662 57.7227 39.1662 57.552C39.1662 57.4133 39.1876 57.304 39.2302 57.224C39.2676 57.144 39.3262 57.104 39.4062 57.104H40.5903ZM41.7778 57.104C41.8524 57.104 41.9084 57.1413 41.9458 57.216C41.9884 57.2907 42.0098 57.4133 42.0098 57.584C42.0098 57.7227 41.9991 57.8267 41.9778 57.896C41.9618 57.9653 41.9298 58 41.8818 58H40.6978C40.5644 58 40.4737 57.968 40.4257 57.904C40.3777 57.84 40.3537 57.7227 40.3537 57.552C40.3537 57.4133 40.3751 57.304 40.4177 57.224C40.4551 57.144 40.5137 57.104 40.5938 57.104H41.7778ZM43.7493 57.432C43.5786 57.656 43.3199 57.816 42.9733 57.912C42.8026 57.9547 42.6373 57.9813 42.4773 57.992C42.3226 57.9973 42.1386 58 41.9253 58C41.7919 58 41.6906 57.9653 41.6212 57.896C41.5466 57.8213 41.5092 57.7147 41.5092 57.576C41.5092 57.4213 41.5332 57.304 41.5812 57.224C41.6292 57.144 41.6959 57.104 41.7812 57.104C41.9999 57.104 42.1706 57.0987 42.2933 57.088C42.4213 57.0773 42.5359 57.0427 42.6373 56.984C42.7013 56.9467 42.7546 56.896 42.7973 56.832C42.8399 56.768 42.8719 56.6987 42.8933 56.624C42.9199 56.5493 42.9359 56.472 42.9413 56.392C42.9519 56.312 42.9572 56.2373 42.9572 56.168V54.424H44.0453V56.336C44.0453 56.5653 44.1253 56.752 44.2853 56.896C44.4453 57.0347 44.6639 57.104 44.9413 57.104C45.0213 57.104 45.0799 57.1387 45.1173 57.208C45.1546 57.2773 45.1733 57.3893 45.1733 57.544C45.1733 57.7307 45.1679 57.8533 45.1573 57.912C45.1466 57.9707 45.1226 58 45.0853 58C44.9839 58 44.8693 57.9893 44.7413 57.968C44.6186 57.9467 44.4933 57.9147 44.3653 57.872C44.2426 57.824 44.1253 57.7653 44.0133 57.696C43.9066 57.6213 43.8186 57.5333 43.7493 57.432ZM42.1973 53.072C42.1973 52.9067 42.2506 52.7707 42.3573 52.664C42.4639 52.5573 42.6026 52.504 42.7733 52.504C42.9386 52.504 43.0719 52.5573 43.1733 52.664C43.2799 52.7707 43.3333 52.9067 43.3333 53.072C43.3333 53.2427 43.2799 53.3813 43.1733 53.488C43.0719 53.5947 42.9386 53.648 42.7733 53.648C42.6026 53.648 42.4639 53.5947 42.3573 53.488C42.2506 53.3813 42.1973 53.2427 42.1973 53.072ZM43.6133 53.072C43.6133 52.9067 43.6666 52.7707 43.7733 52.664C43.8799 52.5573 44.0186 52.504 44.1893 52.504C44.3546 52.504 44.4879 52.5573 44.5893 52.664C44.6959 52.7707 44.7493 52.9067 44.7493 53.072C44.7493 53.2427 44.6959 53.3813 44.5893 53.488C44.4879 53.5947 44.3546 53.648 44.1893 53.648C44.0186 53.648 43.8799 53.5947 43.7733 53.488C43.6666 53.3813 43.6133 53.2427 43.6133 53.072ZM45.0815 58C44.9642 58 44.8655 57.968 44.7855 57.904C44.7055 57.84 44.6655 57.7307 44.6655 57.576C44.6655 57.464 44.6842 57.3573 44.7215 57.256C44.7588 57.1547 44.8308 57.104 44.9375 57.104H46.5855C46.7935 57.104 46.9615 57.0827 47.0895 57.04C47.2228 56.9973 47.3215 56.9387 47.3855 56.864C47.4495 56.784 47.4922 56.6933 47.5135 56.592C47.5348 56.4907 47.5455 56.376 47.5455 56.248C47.5455 55.928 47.4415 55.6853 47.2335 55.52C47.0255 55.3547 46.7082 55.272 46.2815 55.272C46.1748 55.272 46.0415 55.2827 45.8815 55.304C45.7268 55.3253 45.5695 55.3627 45.4095 55.416L45.1775 54.6C45.4175 54.5093 45.6522 54.448 45.8815 54.416C46.1108 54.3787 46.3082 54.36 46.4735 54.36C46.8628 54.36 47.1962 54.408 47.4735 54.504C47.7562 54.6 47.9855 54.7387 48.1615 54.92C48.3428 55.096 48.4708 55.3013 48.5455 55.536C48.6255 55.7707 48.6655 56.024 48.6655 56.296C48.6655 56.4507 48.6522 56.6027 48.6255 56.752C48.6948 56.8587 48.7935 56.944 48.9215 57.008C49.0548 57.072 49.1962 57.104 49.3455 57.104C49.4095 57.104 49.4548 57.1333 49.4815 57.192C49.5135 57.2507 49.5295 57.3707 49.5295 57.552C49.5295 57.6533 49.5268 57.7333 49.5215 57.792C49.5215 57.8507 49.5188 57.8933 49.5135 57.92C49.5135 57.9413 49.5108 57.96 49.5055 57.976C49.5002 57.992 49.4948 58 49.4895 58C49.4042 58 49.3108 57.9947 49.2095 57.984C49.1082 57.968 49.0015 57.9413 48.8895 57.904C48.7828 57.8667 48.6762 57.8133 48.5695 57.744C48.4682 57.6747 48.3775 57.584 48.2975 57.472C47.9935 57.824 47.5535 58 46.9775 58H45.0815ZM49.4878 58C49.3598 58 49.2584 57.9653 49.1837 57.896C49.1091 57.8267 49.0717 57.72 49.0717 57.576C49.0717 57.432 49.0957 57.3173 49.1437 57.232C49.1864 57.1467 49.2531 57.104 49.3438 57.104H50.0558V54.424H51.1518V54.96C51.5731 54.736 51.9704 54.5813 52.3438 54.496C52.7171 54.4053 53.0531 54.36 53.3518 54.36C53.7198 54.36 54.0398 54.4053 54.3118 54.496C54.5838 54.5813 54.8078 54.704 54.9838 54.864C55.1598 55.024 55.2904 55.2187 55.3758 55.448C55.4611 55.672 55.5038 55.92 55.5038 56.192V56.424C55.5038 56.6427 55.5731 56.8107 55.7118 56.928C55.8504 57.0453 56.0371 57.104 56.2718 57.104C56.3518 57.104 56.4024 57.1387 56.4238 57.208C56.4504 57.2773 56.4638 57.3893 56.4638 57.544C56.4638 57.7307 56.4584 57.8533 56.4478 57.912C56.4424 57.9707 56.4291 58 56.4078 58C56.1464 58 55.9171 57.9547 55.7198 57.864C55.5278 57.768 55.3758 57.6347 55.2638 57.464C55.0238 57.8213 54.5864 58 53.9518 58H49.4878ZM53.1278 55.272C52.7918 55.272 52.4584 55.328 52.1278 55.44C51.8024 55.5467 51.4771 55.6987 51.1518 55.896V57.104H53.6878C53.8318 57.104 53.9518 57.0853 54.0477 57.048C54.1438 57.0053 54.2158 56.952 54.2638 56.888C54.3171 56.8187 54.3544 56.7387 54.3758 56.648C54.3971 56.552 54.4078 56.448 54.4078 56.336C54.4078 56 54.2958 55.7387 54.0718 55.552C53.8478 55.3653 53.5331 55.272 53.1278 55.272ZM56.2734 57.104C56.4388 57.104 56.5748 57.0907 56.6814 57.064C56.7934 57.032 56.8788 56.9867 56.9374 56.928C56.9961 56.864 57.0361 56.7867 57.0574 56.696C57.0788 56.6053 57.0894 56.496 57.0894 56.368V54.424H58.1774V56.56C58.1774 56.8107 58.1481 57.024 58.0894 57.2C58.0308 57.376 57.9321 57.5253 57.7934 57.648C57.6601 57.7653 57.4814 57.8533 57.2574 57.912C57.0334 57.9707 56.7534 58 56.4174 58C56.2788 58 56.1748 57.9653 56.1054 57.896C56.0361 57.8213 56.0014 57.7147 56.0014 57.576C56.0014 57.4267 56.0254 57.312 56.0734 57.232C56.1161 57.1467 56.1828 57.104 56.2734 57.104ZM56.9934 59.192C56.9934 59.0267 57.0468 58.8907 57.1534 58.784C57.2601 58.6773 57.3988 58.624 57.5694 58.624C57.7348 58.624 57.8681 58.6773 57.9694 58.784C58.0761 58.8907 58.1294 59.0267 58.1294 59.192C58.1294 59.3627 58.0761 59.5013 57.9694 59.608C57.8681 59.7147 57.7348 59.768 57.5694 59.768C57.3988 59.768 57.2601 59.7147 57.1534 59.608C57.0468 59.5013 56.9934 59.3627 56.9934 59.192ZM61.4214 59.4C61.2614 59.4 61.1148 59.3893 60.9814 59.368C60.8481 59.3467 60.7388 59.3227 60.6534 59.296L60.7894 58.44C60.8534 58.4507 60.9148 58.4587 60.9734 58.464C61.0321 58.4747 61.0908 58.48 61.1494 58.48C61.3521 58.48 61.4961 58.4213 61.5814 58.304C61.6721 58.1867 61.7174 57.9973 61.7174 57.736V54.424H62.8134V57.104H63.4854C63.5601 57.104 63.6161 57.1413 63.6534 57.216C63.6961 57.2853 63.7174 57.4 63.7174 57.56C63.7174 57.736 63.7094 57.8533 63.6934 57.912C63.6828 57.9707 63.6614 58 63.6294 58H62.8134C62.8028 58.288 62.7574 58.5227 62.6774 58.704C62.5974 58.8853 62.4908 59.0267 62.3574 59.128C62.2294 59.2347 62.0828 59.3067 61.9174 59.344C61.7574 59.3813 61.5921 59.4 61.4214 59.4ZM63.6284 58C63.495 58 63.3937 57.9653 63.3244 57.896C63.2497 57.8213 63.2124 57.7147 63.2124 57.576C63.2124 57.4213 63.2364 57.304 63.2844 57.224C63.3324 57.144 63.399 57.104 63.4844 57.104H63.6924C63.7937 57.104 63.8737 57.0853 63.9324 57.048C63.9964 57.0107 64.0444 56.96 64.0764 56.896C64.1137 56.832 64.1404 56.7573 64.1564 56.672C64.1777 56.5813 64.1964 56.4747 64.2124 56.352C64.2337 56.0587 64.2897 55.7893 64.3804 55.544C64.4764 55.2987 64.6017 55.088 64.7564 54.912C64.9164 54.736 65.1057 54.6 65.3244 54.504C65.5484 54.408 65.7937 54.36 66.0604 54.36C66.3644 54.36 66.6337 54.4053 66.8684 54.496C67.103 54.5867 67.3004 54.7147 67.4604 54.88C67.6204 55.0453 67.7404 55.24 67.8204 55.464C67.9004 55.688 67.9404 55.9333 67.9404 56.2C67.9404 56.3067 67.935 56.4053 67.9244 56.496C67.9137 56.5867 67.9004 56.672 67.8844 56.752C67.9537 56.8587 68.055 56.944 68.1884 57.008C68.3217 57.072 68.4604 57.104 68.6044 57.104C68.679 57.104 68.727 57.1413 68.7484 57.216C68.775 57.2907 68.7884 57.4027 68.7884 57.552C68.7884 57.6533 68.7857 57.7333 68.7804 57.792C68.7804 57.8507 68.7777 57.896 68.7724 57.928C68.767 57.96 68.7617 57.9813 68.7564 57.992C68.7564 57.9973 68.7537 58 68.7484 58C68.663 58 68.567 57.9947 68.4604 57.984C68.359 57.968 68.2524 57.9413 68.1404 57.904C68.0337 57.8613 67.927 57.8053 67.8204 57.736C67.719 57.6667 67.6284 57.576 67.5484 57.464C67.367 57.6667 67.1617 57.8133 66.9324 57.904C66.703 57.9893 66.455 58.032 66.1884 58.032C65.9377 58.032 65.711 58 65.5084 57.936C65.311 57.8667 65.1057 57.7467 64.8924 57.576C64.759 57.7413 64.6204 57.8533 64.4764 57.912C64.3324 57.9707 64.135 58 63.8844 58H63.6284ZM66.1004 55.28C65.9564 55.28 65.831 55.32 65.7244 55.4C65.623 55.4747 65.535 55.5787 65.4604 55.712C65.391 55.84 65.335 55.9867 65.2924 56.152C65.255 56.3173 65.2284 56.5013 65.2124 56.704C65.367 56.848 65.5137 56.952 65.6524 57.016C65.791 57.08 65.943 57.112 66.1084 57.112C66.3324 57.112 66.511 57.0347 66.6444 56.88C66.7777 56.7253 66.8444 56.5227 66.8444 56.272C66.8444 55.9627 66.7777 55.72 66.6444 55.544C66.5164 55.368 66.335 55.28 66.1004 55.28ZM69.7856 57.104C69.8602 57.104 69.9162 57.1413 69.9536 57.216C69.9962 57.2907 70.0176 57.4133 70.0176 57.584C70.0176 57.7227 70.0069 57.8267 69.9856 57.896C69.9696 57.9653 69.9376 58 69.8896 58H68.7056C68.5722 58 68.4816 57.968 68.4336 57.904C68.3856 57.84 68.3616 57.7227 68.3616 57.552C68.3616 57.4133 68.3829 57.304 68.4256 57.224C68.4629 57.144 68.5216 57.104 68.6016 57.104H69.7856ZM70.9731 57.104C71.0477 57.104 71.1037 57.1413 71.1411 57.216C71.1837 57.2907 71.2051 57.4133 71.2051 57.584C71.2051 57.7227 71.1944 57.8267 71.1731 57.896C71.1571 57.9653 71.1251 58 71.0771 58H69.8931C69.7597 58 69.6691 57.968 69.6211 57.904C69.5731 57.84 69.5491 57.7227 69.5491 57.552C69.5491 57.4133 69.5704 57.304 69.6131 57.224C69.6504 57.144 69.7091 57.104 69.7891 57.104H70.9731ZM72.1606 57.104C72.2352 57.104 72.2912 57.1413 72.3286 57.216C72.3712 57.2907 72.3926 57.4133 72.3926 57.584C72.3926 57.7227 72.3819 57.8267 72.3606 57.896C72.3446 57.9653 72.3126 58 72.2646 58H71.0806C70.9472 58 70.8566 57.968 70.8086 57.904C70.7606 57.84 70.7366 57.7227 70.7366 57.552C70.7366 57.4133 70.7579 57.304 70.8006 57.224C70.8379 57.144 70.8966 57.104 70.9766 57.104H72.1606ZM73.3481 57.104C73.4227 57.104 73.4787 57.1413 73.5161 57.216C73.5587 57.2907 73.5801 57.4133 73.5801 57.584C73.5801 57.7227 73.5694 57.8267 73.5481 57.896C73.5321 57.9653 73.5001 58 73.4521 58H72.2681C72.1347 58 72.0441 57.968 71.9961 57.904C71.9481 57.84 71.9241 57.7227 71.9241 57.552C71.9241 57.4133 71.9454 57.304 71.9881 57.224C72.0254 57.144 72.0841 57.104 72.1641 57.104H73.3481ZM74.5356 57.104C74.6102 57.104 74.6662 57.1413 74.7036 57.216C74.7462 57.2907 74.7676 57.4133 74.7676 57.584C74.7676 57.7227 74.7569 57.8267 74.7356 57.896C74.7196 57.9653 74.6876 58 74.6396 58H73.4556C73.3222 58 73.2316 57.968 73.1836 57.904C73.1356 57.84 73.1116 57.7227 73.1116 57.552C73.1116 57.4133 73.1329 57.304 73.1756 57.224C73.2129 57.144 73.2716 57.104 73.3516 57.104H74.5356ZM75.7231 57.104C75.7977 57.104 75.8537 57.1413 75.8911 57.216C75.9337 57.2907 75.9551 57.4133 75.9551 57.584C75.9551 57.7227 75.9444 57.8267 75.9231 57.896C75.9071 57.9653 75.8751 58 75.8271 58H74.6431C74.5097 58 74.4191 57.968 74.3711 57.904C74.3231 57.84 74.2991 57.7227 74.2991 57.552C74.2991 57.4133 74.3204 57.304 74.3631 57.224C74.4004 57.144 74.4591 57.104 74.5391 57.104H75.7231ZM77.6946 57.432C77.5239 57.656 77.2652 57.816 76.9186 57.912C76.7479 57.9547 76.5826 57.9813 76.4226 57.992C76.2679 57.9973 76.0839 58 75.8706 58C75.7372 58 75.6359 57.9653 75.5666 57.896C75.4919 57.8213 75.4546 57.7147 75.4546 57.576C75.4546 57.4213 75.4786 57.304 75.5266 57.224C75.5746 57.144 75.6412 57.104 75.7266 57.104C75.9452 57.104 76.1159 57.0987 76.2386 57.088C76.3666 57.0773 76.4812 57.0427 76.5826 56.984C76.6466 56.9467 76.6999 56.896 76.7426 56.832C76.7852 56.768 76.8172 56.6987 76.8386 56.624C76.8652 56.5493 76.8812 56.472 76.8866 56.392C76.8972 56.312 76.9026 56.2373 76.9026 56.168V54.424H77.9906V56.336C77.9906 56.5653 78.0706 56.752 78.2306 56.896C78.3906 57.0347 78.6092 57.104 78.8866 57.104C78.9666 57.104 79.0252 57.1387 79.0626 57.208C79.0999 57.2773 79.1186 57.3893 79.1186 57.544C79.1186 57.7307 79.1132 57.8533 79.1026 57.912C79.0919 57.9707 79.0679 58 79.0306 58C78.9292 58 78.8146 57.9893 78.6866 57.968C78.5639 57.9467 78.4386 57.9147 78.3106 57.872C78.1879 57.824 78.0706 57.7653 77.9586 57.696C77.8519 57.6213 77.7639 57.5333 77.6946 57.432ZM76.1586 53.072C76.1586 52.9067 76.2119 52.7707 76.3186 52.664C76.4252 52.5573 76.5639 52.504 76.7346 52.504C76.8999 52.504 77.0332 52.5573 77.1346 52.664C77.2412 52.7707 77.2946 52.9067 77.2946 53.072C77.2946 53.2427 77.2412 53.3813 77.1346 53.488C77.0332 53.5947 76.8999 53.648 76.7346 53.648C76.5639 53.648 76.4252 53.5947 76.3186 53.488C76.2119 53.3813 76.1586 53.2427 76.1586 53.072ZM77.5746 53.072C77.5746 52.9067 77.6279 52.7707 77.7346 52.664C77.8412 52.5573 77.9799 52.504 78.1506 52.504C78.3159 52.504 78.4492 52.5573 78.5506 52.664C78.6572 52.7707 78.7106 52.9067 78.7106 53.072C78.7106 53.2427 78.6572 53.3813 78.5506 53.488C78.4492 53.5947 78.3159 53.648 78.1506 53.648C77.9799 53.648 77.8412 53.5947 77.7346 53.488C77.6279 53.3813 77.5746 53.2427 77.5746 53.072ZM76.8626 51.824C76.8626 51.6587 76.9159 51.5227 77.0226 51.416C77.1292 51.3093 77.2679 51.256 77.4386 51.256C77.6039 51.256 77.7372 51.3093 77.8386 51.416C77.9452 51.5227 77.9986 51.6587 77.9986 51.824C77.9986 51.9947 77.9452 52.1333 77.8386 52.24C77.7372 52.3467 77.6039 52.4 77.4386 52.4C77.2679 52.4 77.1292 52.3467 77.0226 52.24C76.9159 52.1333 76.8626 51.9947 76.8626 51.824ZM80.8508 57.432C80.6801 57.656 80.4215 57.816 80.0748 57.912C79.9041 57.9547 79.7388 57.9813 79.5788 57.992C79.4241 57.9973 79.2401 58 79.0268 58C78.8935 58 78.7921 57.9653 78.7228 57.896C78.6481 57.8213 78.6108 57.7147 78.6108 57.576C78.6108 57.4213 78.6348 57.304 78.6828 57.224C78.7308 57.144 78.7975 57.104 78.8828 57.104C79.1015 57.104 79.2721 57.0987 79.3948 57.088C79.5228 57.0773 79.6375 57.0427 79.7388 56.984C79.8028 56.9467 79.8561 56.896 79.8988 56.832C79.9415 56.768 79.9735 56.6987 79.9948 56.624C80.0215 56.5493 80.0375 56.472 80.0428 56.392C80.0535 56.312 80.0588 56.2373 80.0588 56.168V54.424H81.1468V56.336C81.1468 56.5653 81.2268 56.752 81.3868 56.896C81.5468 57.0347 81.7655 57.104 82.0428 57.104C82.1228 57.104 82.1815 57.1387 82.2188 57.208C82.2561 57.2773 82.2748 57.3893 82.2748 57.544C82.2748 57.7307 82.2695 57.8533 82.2588 57.912C82.2481 57.9707 82.2241 58 82.1868 58C82.0855 58 81.9708 57.9893 81.8428 57.968C81.7201 57.9467 81.5948 57.9147 81.4668 57.872C81.3441 57.824 81.2268 57.7653 81.1148 57.696C81.0081 57.6213 80.9201 57.5333 80.8508 57.432ZM79.2988 53.072C79.2988 52.9067 79.3521 52.7707 79.4588 52.664C79.5655 52.5573 79.7041 52.504 79.8748 52.504C80.0401 52.504 80.1735 52.5573 80.2748 52.664C80.3815 52.7707 80.4348 52.9067 80.4348 53.072C80.4348 53.2427 80.3815 53.3813 80.2748 53.488C80.1735 53.5947 80.0401 53.648 79.8748 53.648C79.7041 53.648 79.5655 53.5947 79.4588 53.488C79.3521 53.3813 79.2988 53.2427 79.2988 53.072ZM80.7148 53.072C80.7148 52.9067 80.7681 52.7707 80.8748 52.664C80.9815 52.5573 81.1201 52.504 81.2908 52.504C81.4561 52.504 81.5895 52.5573 81.6908 52.664C81.7975 52.7707 81.8508 52.9067 81.8508 53.072C81.8508 53.2427 81.7975 53.3813 81.6908 53.488C81.5895 53.5947 81.4561 53.648 81.2908 53.648C81.1201 53.648 80.9815 53.5947 80.8748 53.488C80.7681 53.3813 80.7148 53.2427 80.7148 53.072ZM84.8631 58C84.5964 58 84.3644 57.9573 84.1671 57.872C83.9697 57.7813 83.8257 57.656 83.7351 57.496C83.6017 57.6667 83.4097 57.7947 83.1591 57.88C82.9137 57.96 82.5884 58 82.1831 58C82.0497 58 81.9484 57.9653 81.8791 57.896C81.8044 57.8213 81.7671 57.7147 81.7671 57.576C81.7671 57.4213 81.7911 57.304 81.8391 57.224C81.8871 57.144 81.9537 57.104 82.0391 57.104C82.3431 57.104 82.5591 57.0533 82.6871 56.952C82.8204 56.8453 82.8871 56.6507 82.8871 56.368V55.12H83.9751V56.464C83.9751 56.5493 83.9831 56.632 83.9991 56.712C84.0151 56.7867 84.0417 56.8533 84.0791 56.912C84.1217 56.9707 84.1831 57.0187 84.2631 57.056C84.3431 57.088 84.4444 57.104 84.5671 57.104C84.7644 57.104 84.9004 57.056 84.9751 56.96C85.0551 56.8587 85.0951 56.6613 85.0951 56.368V55.12H86.1831V56.464C86.1831 56.5493 86.1911 56.632 86.2071 56.712C86.2231 56.7867 86.2524 56.8533 86.2951 56.912C86.3377 56.9707 86.3964 57.0187 86.4711 57.056C86.5511 57.088 86.6524 57.104 86.7751 57.104C86.9724 57.104 87.1084 57.056 87.1831 56.96C87.2631 56.864 87.3031 56.6667 87.3031 56.368V54.424H88.3911V56.624C88.3911 57.0613 88.2764 57.4 88.0471 57.64C87.8177 57.88 87.4924 58 87.0711 58C86.8044 58 86.5724 57.9573 86.3751 57.872C86.1777 57.7813 86.0364 57.6587 85.9511 57.504C85.7111 57.8347 85.3484 58 84.8631 58ZM90.4832 52.12V58H89.3872V52.12H90.4832Z" fill="white"/>
<path d="M0.537298 62.716H1.4133V67H0.537298V62.716ZM4.81984 66.136H4.83184V62.716H5.65384V67H4.34584L2.99584 63.532H2.98384V67H2.16784V62.716H3.51784L4.81984 66.136ZM5.96167 62.716H6.92167L7.97767 66.16H7.98967L9.05167 62.716H9.99967L8.52367 67H7.43167L5.96167 62.716ZM10.3039 62.716H12.8839V63.418H11.1799V64.462H12.7459V65.164H11.1799V66.298H12.9379V67H10.3039V62.716ZM15.7675 63.502C15.6155 63.446 15.4615 63.406 15.3055 63.382C15.1495 63.358 14.9975 63.346 14.8495 63.346C14.7615 63.346 14.6755 63.354 14.5915 63.37C14.5115 63.382 14.4395 63.406 14.3755 63.442C14.3115 63.478 14.2595 63.526 14.2195 63.586C14.1835 63.642 14.1655 63.714 14.1655 63.802C14.1655 63.878 14.1815 63.946 14.2135 64.006C14.2455 64.062 14.2935 64.116 14.3575 64.168C14.4255 64.22 14.5095 64.272 14.6095 64.324C14.7135 64.372 14.8355 64.424 14.9755 64.48C15.1515 64.552 15.3115 64.628 15.4555 64.708C15.5995 64.784 15.7255 64.874 15.8335 64.978C15.9415 65.078 16.0235 65.196 16.0795 65.332C16.1355 65.464 16.1635 65.624 16.1635 65.812C16.1635 66.024 16.1195 66.21 16.0315 66.37C15.9475 66.53 15.8315 66.662 15.6835 66.766C15.5355 66.87 15.3655 66.948 15.1735 67C14.9855 67.048 14.7875 67.072 14.5795 67.072C14.3835 67.072 14.1715 67.054 13.9435 67.018C13.7195 66.986 13.4975 66.932 13.2775 66.856L13.4335 66.142C13.6335 66.222 13.8295 66.28 14.0215 66.316C14.2175 66.352 14.3935 66.37 14.5495 66.37C14.7895 66.37 14.9715 66.33 15.0955 66.25C15.2195 66.166 15.2835 66.04 15.2875 65.872C15.2875 65.792 15.2715 65.722 15.2395 65.662C15.2075 65.598 15.1555 65.54 15.0835 65.488C15.0155 65.432 14.9275 65.378 14.8195 65.326C14.7155 65.274 14.5915 65.22 14.4475 65.164C14.2755 65.096 14.1195 65.022 13.9795 64.942C13.8395 64.862 13.7175 64.772 13.6135 64.672C13.5095 64.568 13.4295 64.452 13.3735 64.324C13.3175 64.196 13.2895 64.05 13.2895 63.886C13.2895 63.666 13.3335 63.478 13.4215 63.322C13.5095 63.162 13.6255 63.032 13.7695 62.932C13.9175 62.832 14.0795 62.76 14.2555 62.716C14.4355 62.668 14.6155 62.644 14.7955 62.644C15.0035 62.644 15.2035 62.658 15.3955 62.686C15.5875 62.71 15.7615 62.748 15.9175 62.8L15.7675 63.502ZM17.4377 63.418H16.2977V62.716H19.4297V63.418H18.3137V67H17.4377V63.418ZM21.1621 62.716H22.0381V67H21.1621V62.716ZM25.4446 66.136H25.4566V62.716H26.2786V67H24.9706L23.6206 63.532H23.6086V67H22.7926V62.716H24.1426L25.4446 66.136ZM29.531 65.368L27.953 62.716H28.979L29.975 64.54L30.977 62.716H31.979L30.407 65.368V67H29.531V65.368ZM35.8433 64.864C35.8433 65.184 35.7993 65.48 35.7113 65.752C35.6233 66.02 35.4933 66.252 35.3213 66.448C35.1533 66.644 34.9433 66.798 34.6913 66.91C34.4433 67.018 34.1573 67.072 33.8333 67.072C33.5093 67.072 33.2213 67.018 32.9693 66.91C32.7213 66.798 32.5113 66.644 32.3393 66.448C32.1713 66.252 32.0433 66.02 31.9553 65.752C31.8673 65.48 31.8233 65.184 31.8233 64.864C31.8233 64.54 31.8673 64.244 31.9553 63.976C32.0433 63.704 32.1713 63.47 32.3393 63.274C32.5073 63.074 32.7173 62.92 32.9693 62.812C33.2253 62.7 33.5133 62.644 33.8333 62.644C34.1573 62.644 34.4453 62.7 34.6973 62.812C34.9493 62.92 35.1593 63.074 35.3273 63.274C35.4993 63.47 35.6273 63.704 35.7113 63.976C35.7993 64.244 35.8433 64.54 35.8433 64.864ZM34.9673 64.864C34.9673 64.656 34.9433 64.46 34.8953 64.276C34.8513 64.088 34.7833 63.926 34.6913 63.79C34.6033 63.654 34.4873 63.546 34.3433 63.466C34.1993 63.386 34.0293 63.346 33.8333 63.346C33.6413 63.346 33.4713 63.386 33.3233 63.466C33.1793 63.546 33.0613 63.654 32.9693 63.79C32.8813 63.926 32.8133 64.088 32.7653 64.276C32.7213 64.46 32.6993 64.656 32.6993 64.864C32.6993 65.072 32.7213 65.268 32.7653 65.452C32.8133 65.636 32.8833 65.796 32.9753 65.932C33.0713 66.068 33.1893 66.176 33.3293 66.256C33.4733 66.332 33.6433 66.37 33.8393 66.37C34.0353 66.37 34.2033 66.332 34.3433 66.256C34.4873 66.176 34.6053 66.068 34.6973 65.932C34.7893 65.796 34.8573 65.636 34.9013 65.452C34.9453 65.268 34.9673 65.072 34.9673 64.864ZM39.8294 65.734C39.8294 65.95 39.7854 66.142 39.6974 66.31C39.6134 66.478 39.4934 66.618 39.3374 66.73C39.1854 66.842 39.0034 66.928 38.7914 66.988C38.5834 67.044 38.3574 67.072 38.1134 67.072C37.8694 67.072 37.6434 67.044 37.4354 66.988C37.2274 66.928 37.0474 66.842 36.8954 66.73C36.7434 66.618 36.6234 66.478 36.5354 66.31C36.4514 66.142 36.4094 65.95 36.4094 65.734V62.716H37.2854V65.626C37.2894 65.89 37.3674 66.082 37.5194 66.202C37.6714 66.318 37.8674 66.374 38.1074 66.37C38.2274 66.37 38.3374 66.356 38.4374 66.328C38.5374 66.3 38.6254 66.256 38.7014 66.196C38.7814 66.136 38.8434 66.058 38.8874 65.962C38.9314 65.866 38.9534 65.754 38.9534 65.626V62.716H39.8294V65.734ZM40.5371 62.716H42.1991C42.3911 62.716 42.5771 62.736 42.7571 62.776C42.9371 62.816 43.0951 62.882 43.2311 62.974C43.3711 63.062 43.4811 63.182 43.5611 63.334C43.6451 63.482 43.6871 63.664 43.6871 63.88C43.6871 64.132 43.6231 64.342 43.4951 64.51C43.3711 64.674 43.1931 64.796 42.9611 64.876V64.888C43.0291 64.912 43.0891 64.942 43.1411 64.978C43.1931 65.014 43.2391 65.062 43.2791 65.122C43.3191 65.178 43.3571 65.25 43.3931 65.338C43.4291 65.426 43.4651 65.54 43.5011 65.68C43.5691 65.896 43.6351 66.114 43.6991 66.334C43.7631 66.55 43.8291 66.772 43.8971 67H42.9551C42.9351 66.924 42.9111 66.836 42.8831 66.736C42.8591 66.632 42.8331 66.528 42.8051 66.424C42.7811 66.32 42.7571 66.222 42.7331 66.13C42.7091 66.034 42.6871 65.95 42.6671 65.878C42.6351 65.762 42.6011 65.666 42.5651 65.59C42.5291 65.51 42.4811 65.448 42.4211 65.404C42.3651 65.356 42.2891 65.322 42.1931 65.302C42.0971 65.282 41.9731 65.272 41.8211 65.272H41.4131V67H40.5371V62.716ZM41.4131 64.57H41.9891C42.1091 64.57 42.2191 64.562 42.3191 64.546C42.4191 64.526 42.5051 64.494 42.5771 64.45C42.6531 64.406 42.7111 64.348 42.7511 64.276C42.7911 64.2 42.8111 64.106 42.8111 63.994C42.8111 63.878 42.7891 63.782 42.7451 63.706C42.7011 63.63 42.6411 63.572 42.5651 63.532C42.4931 63.488 42.4071 63.458 42.3071 63.442C42.2111 63.426 42.1131 63.418 42.0131 63.418H41.4131V64.57ZM45.6557 62.716H46.5317V64.462H48.1757V62.716H49.0517V67H48.1757V65.164H46.5317V67H45.6557V62.716ZM49.7999 62.716H52.3799V63.418H50.6759V64.462H52.2419V65.164H50.6759V66.298H52.4339V67H49.7999V62.716ZM53.4454 67H52.5154L54.0574 62.716H55.2574L56.7934 67H55.8514L55.4674 65.956H53.8174L53.4454 67ZM54.0214 65.248H55.2634L54.6454 63.4L54.0214 65.248ZM57.0922 62.716H57.9682V66.298H59.6722V67H57.0922V62.716ZM60.1755 63.418H59.0355V62.716H62.1675V63.418H61.0515V67H60.1755V63.418ZM62.5213 62.716H63.3973V64.462H65.0413V62.716H65.9173V67H65.0413V65.164H63.3973V67H62.5213V62.716ZM70.5281 63.514H70.5161L69.9161 67H68.6861L67.7561 62.716H68.7101L69.3221 66.22H69.3341L69.8861 62.716H71.1761L71.7101 66.22H71.7221L72.3521 62.716H73.2821L72.3521 67H71.1161L70.5281 63.514ZM73.7469 62.716H74.6229V67H73.7469V62.716ZM76.1095 63.418H74.9695V62.716H78.1015V63.418H76.9855V67H76.1095V63.418ZM78.4553 62.716H79.3313V64.462H80.9753V62.716H81.8513V67H80.9753V65.164H79.3313V67H78.4553V62.716ZM87.3501 65.734C87.3501 65.95 87.3061 66.142 87.2181 66.31C87.1341 66.478 87.0141 66.618 86.8581 66.73C86.7061 66.842 86.5241 66.928 86.3121 66.988C86.1041 67.044 85.8781 67.072 85.6341 67.072C85.3901 67.072 85.1641 67.044 84.9561 66.988C84.7481 66.928 84.5681 66.842 84.4161 66.73C84.2641 66.618 84.1441 66.478 84.0561 66.31C83.9721 66.142 83.9301 65.95 83.9301 65.734V62.716H84.8061V65.626C84.8101 65.89 84.8881 66.082 85.0401 66.202C85.1921 66.318 85.3881 66.374 85.6281 66.37C85.7481 66.37 85.8581 66.356 85.9581 66.328C86.0581 66.3 86.1461 66.256 86.2221 66.196C86.3021 66.136 86.3641 66.058 86.4081 65.962C86.4521 65.866 86.4741 65.754 86.4741 65.626V62.716H87.3501V65.734ZM90.3498 63.502C90.1978 63.446 90.0438 63.406 89.8878 63.382C89.7318 63.358 89.5798 63.346 89.4318 63.346C89.3438 63.346 89.2578 63.354 89.1738 63.37C89.0938 63.382 89.0218 63.406 88.9578 63.442C88.8938 63.478 88.8418 63.526 88.8018 63.586C88.7658 63.642 88.7478 63.714 88.7478 63.802C88.7478 63.878 88.7638 63.946 88.7958 64.006C88.8278 64.062 88.8758 64.116 88.9398 64.168C89.0078 64.22 89.0918 64.272 89.1918 64.324C89.2958 64.372 89.4178 64.424 89.5578 64.48C89.7338 64.552 89.8938 64.628 90.0378 64.708C90.1818 64.784 90.3078 64.874 90.4158 64.978C90.5238 65.078 90.6058 65.196 90.6618 65.332C90.7178 65.464 90.7458 65.624 90.7458 65.812C90.7458 66.024 90.7018 66.21 90.6138 66.37C90.5298 66.53 90.4138 66.662 90.2658 66.766C90.1178 66.87 89.9478 66.948 89.7558 67C89.5678 67.048 89.3698 67.072 89.1618 67.072C88.9658 67.072 88.7538 67.054 88.5258 67.018C88.3018 66.986 88.0798 66.932 87.8598 66.856L88.0158 66.142C88.2158 66.222 88.4118 66.28 88.6038 66.316C88.7998 66.352 88.9758 66.37 89.1318 66.37C89.3718 66.37 89.5538 66.33 89.6778 66.25C89.8018 66.166 89.8658 66.04 89.8698 65.872C89.8698 65.792 89.8538 65.722 89.8218 65.662C89.7898 65.598 89.7378 65.54 89.6658 65.488C89.5978 65.432 89.5098 65.378 89.4018 65.326C89.2978 65.274 89.1738 65.22 89.0298 65.164C88.8578 65.096 88.7018 65.022 88.5618 64.942C88.4218 64.862 88.2998 64.772 88.1958 64.672C88.0918 64.568 88.0118 64.452 87.9558 64.324C87.8998 64.196 87.8718 64.05 87.8718 63.886C87.8718 63.666 87.9158 63.478 88.0038 63.322C88.0918 63.162 88.2078 63.032 88.3518 62.932C88.4998 62.832 88.6618 62.76 88.8378 62.716C89.0178 62.668 89.1978 62.644 89.3778 62.644C89.5858 62.644 89.7858 62.658 89.9778 62.686C90.1698 62.71 90.3438 62.748 90.4998 62.8L90.3498 63.502Z" fill="white"/>
</svg>
