<svg width="121" height="82" viewBox="0 0 121 82" fill="none" xmlns="http://www.w3.org/2000/svg">
<g clip-path="url(#clip0_373_424)">
<path d="M20.3014 0.92627L42.3213 1.06162C49.2775 1.10437 54.4219 1.63865 57.7614 2.66448C61.101 3.69031 63.4955 5.74197 64.9522 8.81234C66.4088 11.8898 66.3093 16.8266 64.6466 23.6228C63.524 28.2247 61.9608 31.4233 59.9641 33.2257C57.9675 35.028 54.5569 36.4029 49.7465 37.3432C54.5853 38.4474 57.6122 40.2426 58.8272 42.736C60.0352 45.2293 60.021 49.0334 58.7704 54.1554L56.9869 61.4502C55.6866 66.7646 54.0737 70.7041 52.1339 73.2544C50.2012 75.8047 47.6788 77.543 44.5879 78.469C41.4899 79.388 35.5071 79.8226 26.6253 79.7656L1.08826 79.6017L20.3014 0.92627ZM31.8336 44.2747L26.4619 66.2944C29.5954 66.2161 31.6915 65.7744 32.7431 64.9694C33.7947 64.1644 34.7113 62.1769 35.4858 58.9996L37.2764 51.6621C38.1006 48.2925 38.2143 46.248 37.6174 45.5285C37.0206 44.809 35.095 44.3958 31.8336 44.2747ZM39.0954 14.5256L34.825 32.0217C35.7771 31.9932 36.5161 31.9861 37.0419 31.9861C39.2091 32.0004 40.7083 31.516 41.5468 30.5329C42.3781 29.5498 43.3658 26.7216 44.5097 22.0555C45.1137 19.5907 45.2842 17.8667 45.0355 16.8765C44.7869 15.8863 44.3037 15.2594 43.5789 14.9958C42.8542 14.7322 41.362 14.5755 39.0954 14.5328V14.5256Z" fill="#61A7C6"/>
<path d="M107.72 35.7615C110.69 36.7873 112.687 38.4472 113.696 40.7411C114.712 43.0349 114.193 48.3992 112.132 56.8267C110.605 63.0814 108.651 67.9327 106.27 71.3735C103.89 74.8143 100.593 77.4287 96.3797 79.2026C92.1661 80.9764 87.0999 81.8455 81.1953 81.8099C74.4806 81.7672 69.4713 80.6915 66.153 78.5757C62.8348 76.4599 60.9447 73.8882 60.4758 70.8463C60.0068 67.8116 60.6889 62.5471 62.515 55.06L64.0356 48.8409L85.217 48.9762L82.0977 61.7563C81.2663 65.1615 80.9608 67.3201 81.1669 68.2461C81.38 69.1722 82.2327 69.6424 83.739 69.6495C85.3804 69.6567 86.6096 69.0868 87.4197 67.9184C88.2297 66.7573 89.2316 63.7083 90.4324 58.7857L91.7611 53.3431C92.5001 50.3297 92.6706 48.1213 92.2727 46.7251C91.8748 45.3288 91.015 44.4027 89.6934 43.961C88.3647 43.5122 85.6504 43.2487 81.5434 43.156L84.3288 31.7366C89.3595 31.7651 92.5143 31.6083 93.7933 31.2593C95.0651 30.9102 96.1168 30.1408 96.9339 28.944C97.751 27.7472 98.4687 25.8737 99.0939 23.3091L100.16 18.9351C100.835 16.1781 100.97 14.3616 100.572 13.4853C100.174 12.6091 99.3284 12.1603 98.0352 12.1532C96.5715 12.146 95.4488 12.602 94.6815 13.5209C93.9141 14.4399 93.1609 16.4061 92.429 19.4195L90.8516 25.8808L69.6702 25.7454L71.3045 19.0348C73.1377 11.5192 76.2286 6.44699 80.5842 3.83255C84.9328 1.23236 91.15 -0.0499315 99.2218 -6.47479e-05C109.326 0.0640496 115.728 1.93761 118.435 5.62063C121.142 9.30365 121.704 14.3972 120.112 20.9083C119.039 25.3109 117.611 28.4881 115.842 30.44C114.072 32.3919 111.358 34.1658 107.713 35.7615H107.72Z" fill="#61A7C6"/>
</g>
<defs>
<clipPath id="clip0_373_424">
<rect width="121" height="82" fill="white"/>
</clipPath>
</defs>
</svg>
