<svg width="18" height="16" viewBox="0 0 18 16" fill="none" xmlns="http://www.w3.org/2000/svg">
<path fill-rule="evenodd" clip-rule="evenodd" d="M6.48427 2.6092H17.2015L10.836 6.79863L6.50614 3.94893C6.67099 3.52515 6.67239 3.04612 6.48427 2.6092ZM3.68136 5.04077L5.2435 4.12761C5.70709 3.85662 5.86096 3.27845 5.58956 2.82716L4.17926 0.482035C4.03458 0.24142 3.81559 0.0866323 3.53332 0.0254558C3.25102 -0.0357568 2.98407 0.0136549 2.74569 0.17123L0.173722 1.87128C-1.05054 6.0126 4.45104 14.9784 8.67044 16L11.49 14.7116C11.7513 14.5923 11.9294 14.395 12.0153 14.1297C12.1012 13.8644 12.0711 13.6049 11.9264 13.3643L10.5161 11.0192C10.2447 10.5679 9.64622 10.4067 9.16996 10.6567L7.56518 11.4989C5.97815 10.1439 4.11022 7.0378 3.68136 5.04077ZM17.9799 3.14799L11.0905 7.68221C10.9293 7.78784 10.7222 7.77959 10.5724 7.67624L5.99874 4.66611C5.91067 4.74233 5.81537 4.81048 5.7141 4.86969L4.72606 5.44721C5.24516 7.05553 6.52959 9.19135 7.72086 10.4271L8.73586 9.89437C9.64275 9.41843 10.783 9.72547 11.2997 10.5848L12.1743 12.0391H17.2687C17.6709 12.0391 18 11.7232 18 11.337V3.31132C18 3.2563 17.9933 3.20148 17.9799 3.14799Z" fill="#61A7C6"/>
</svg>
