<svg width="32" height="26" viewBox="0 0 32 26" fill="none" xmlns="http://www.w3.org/2000/svg">
<path d="M8.59697 0.220886L13.7145 0.253176C15.3312 0.263373 16.5268 0.390832 17.3029 0.635554C18.0791 0.880276 18.6356 1.36972 18.9741 2.10219C19.3126 2.83635 19.2895 4.01408 18.9031 5.63536C18.6422 6.73321 18.2789 7.49626 17.8148 7.92623C17.3508 8.35619 16.5582 8.68418 15.4402 8.90851C16.5648 9.17193 17.2682 9.60019 17.5506 10.195C17.8314 10.7898 17.8281 11.6973 17.5374 12.9192L17.1229 14.6595C16.8207 15.9273 16.4459 16.8671 15.995 17.4755C15.5459 18.0839 14.9596 18.4985 14.2413 18.7195C13.5213 18.9387 12.1309 19.0424 10.0667 19.0288L4.1317 18.9897L8.59697 0.220886ZM11.2771 10.5621L10.0287 15.8151C10.7569 15.7964 11.2441 15.691 11.4885 15.499C11.7329 15.307 11.9459 14.8328 12.1259 14.0749L12.5421 12.3244C12.7336 11.5206 12.76 11.0328 12.6213 10.8612C12.4826 10.6895 12.0351 10.591 11.2771 10.5621ZM12.9648 3.46515L11.9723 7.63902C12.1936 7.63222 12.3654 7.63052 12.4876 7.63052C12.9912 7.63392 13.3397 7.51836 13.5345 7.28383C13.7277 7.04931 13.9573 6.37462 14.2231 5.26148C14.3635 4.67346 14.4031 4.2622 14.3453 4.02597C14.2875 3.78975 14.1753 3.64019 14.0068 3.57731C13.8384 3.51443 13.4916 3.47705 12.9648 3.46685V3.46515Z" fill="#61A7C6"/>
<path d="M28.9136 8.53124C29.6039 8.77597 30.0679 9.17194 30.3024 9.71916C30.5385 10.2664 30.418 11.5461 29.9391 13.5565C29.5841 15.0487 29.1299 16.206 28.5767 17.0268C28.0235 17.8477 27.2573 18.4714 26.278 18.8945C25.2988 19.3177 24.1214 19.525 22.7491 19.5165C21.1886 19.5063 20.0244 19.2497 19.2532 18.745C18.482 18.2402 18.0427 17.6267 17.9337 16.9011C17.8247 16.1771 17.9833 14.9212 18.4077 13.1351L18.7611 11.6514L23.6838 11.6837L22.9588 14.7326C22.7656 15.5449 22.6946 16.0598 22.7425 16.2808C22.792 16.5017 22.9902 16.6139 23.3403 16.6156C23.7217 16.6173 24.0074 16.4813 24.1957 16.2026C24.3839 15.9256 24.6168 15.1982 24.8959 14.0239L25.2047 12.7255C25.3764 12.0066 25.416 11.4798 25.3236 11.1467C25.2311 10.8136 25.0313 10.5927 24.7241 10.4873C24.4153 10.3803 23.7845 10.3174 22.83 10.2953L23.4773 7.57105C24.6465 7.57785 25.3797 7.54046 25.677 7.45719C25.9725 7.37391 26.2169 7.19037 26.4069 6.90486C26.5968 6.61935 26.7635 6.1724 26.9089 5.56059L27.1566 4.51713C27.3134 3.85944 27.3448 3.42607 27.2523 3.21704C27.1599 3.00801 26.9634 2.90094 26.6628 2.89924C26.3226 2.89754 26.0617 3.00631 25.8834 3.22554C25.705 3.44477 25.53 3.91382 25.3599 4.63269L24.9933 6.1741L20.0706 6.14181L20.4504 4.54092C20.8765 2.74799 21.5948 1.53798 22.6071 0.914276C23.6177 0.293974 25.0626 -0.0119284 26.9386 -3.22044e-05C29.2868 0.0152629 30.7747 0.46222 31.4039 1.34084C32.033 2.21946 32.1635 3.43457 31.7936 4.98787C31.5442 6.03814 31.2123 6.7961 30.8011 7.26175C30.3899 7.7274 29.7591 8.15057 28.912 8.53124H28.9136Z" fill="#61A7C6"/>
<path d="M4.71462 20.4785L3.23996 25.7604L1.96842 25.7519L1.8842 23.3454L1.21375 25.7468L0 25.74L1.47466 20.4581L2.68841 20.4649L2.83703 22.8492L3.50088 20.47L4.71462 20.4768V20.4785Z" fill="#61A7C6"/>
<path d="M8.59531 20.5023L7.60945 24.032C7.49716 24.4314 7.40468 24.7135 7.33202 24.875C7.25936 25.0364 7.13056 25.203 6.94726 25.3729C6.76396 25.5429 6.54928 25.672 6.30323 25.7587C6.05718 25.8454 5.78305 25.8879 5.4825 25.8862C5.14893 25.8845 4.86985 25.8301 4.64361 25.7247C4.41738 25.6193 4.26545 25.4817 4.18454 25.3134C4.10527 25.1452 4.07885 24.9685 4.10857 24.7815C4.13665 24.5946 4.23573 24.2037 4.40086 23.6089L5.27278 20.4836L6.72432 20.4921L5.61792 24.4535C5.55351 24.6846 5.52544 24.8308 5.5337 24.8954C5.54195 24.96 5.58654 24.9922 5.66746 24.9922C5.75993 24.9922 5.82764 24.9583 5.87388 24.8869C5.92011 24.8172 5.97956 24.649 6.05387 24.3855L7.14047 20.4921L8.59201 20.5006L8.59531 20.5023Z" fill="#61A7C6"/>
<path d="M12.0797 20.5244L11.7841 21.5814L10.9221 21.5763L9.743 25.8012L8.29146 25.7927L9.47053 21.5678L8.61182 21.5627L8.90741 20.5057L12.078 20.5261L12.0797 20.5244Z" fill="#61A7C6"/>
<path d="M12.41 20.5261L13.4371 20.5329C14.1224 20.5363 14.5782 20.5651 14.8061 20.6161C15.034 20.6671 15.1958 20.7963 15.2916 21.0036C15.3874 21.2109 15.3725 21.5389 15.2453 21.9893C15.1297 22.4006 14.9993 22.6759 14.8523 22.8169C14.7053 22.958 14.4692 23.0413 14.1439 23.0668C14.413 23.1364 14.5798 23.2282 14.6475 23.3421C14.7152 23.4559 14.7466 23.5596 14.745 23.6548C14.7433 23.7499 14.6822 24.0099 14.5633 24.4365L14.1736 25.8301L12.8261 25.8216L13.3165 24.066C13.3958 23.7839 13.4206 23.6089 13.3925 23.5409C13.3644 23.4729 13.2505 23.4389 13.0507 23.4372L12.3852 25.8199L10.9336 25.8114L12.4083 20.5295L12.41 20.5261ZM13.6088 21.4387L13.2802 22.613C13.4437 22.613 13.5643 22.5943 13.6419 22.5518C13.7195 22.5093 13.7905 22.3717 13.8549 22.1388L13.9358 21.8482C13.982 21.68 13.982 21.5712 13.9325 21.5185C13.8846 21.4659 13.7756 21.4387 13.6088 21.4387Z" fill="#61A7C6"/>
<path d="M17.6629 20.56L16.1883 25.8419L14.7367 25.8334L16.2114 20.5515L17.6629 20.56Z" fill="#61A7C6"/>
<path d="M21.1688 20.5821L20.8732 21.6392L20.0112 21.6341L18.8321 25.8589L17.3805 25.8504L18.5596 21.6256L17.7009 21.6205L17.9965 20.5634L21.1671 20.5838L21.1688 20.5821Z" fill="#61A7C6"/>
<path d="M22.9506 20.5923L21.4759 25.8742L20.0244 25.8657L21.499 20.5838L22.9506 20.5923Z" fill="#61A7C6"/>
<path d="M25.9841 23.7108C25.8355 24.2411 25.7182 24.6167 25.6291 24.8376C25.5415 25.0585 25.4012 25.259 25.2113 25.4409C25.0214 25.6227 24.7935 25.7621 24.5309 25.859C24.2667 25.9558 23.9777 26.0017 23.6623 26C23.3634 25.9983 23.1091 25.9507 22.8961 25.8556C22.6847 25.7621 22.5311 25.621 22.4386 25.4358C22.3462 25.2506 22.3148 25.0483 22.3495 24.8308C22.3825 24.6133 22.475 24.2326 22.6269 23.6888L22.8796 22.7846C23.0282 22.2544 23.1454 21.8788 23.2346 21.6579C23.3221 21.437 23.4625 21.2364 23.6524 21.0546C23.8423 20.8728 24.0702 20.7334 24.3344 20.6365C24.5986 20.5397 24.8876 20.4921 25.203 20.4955C25.5019 20.4972 25.7562 20.5448 25.9692 20.6399C26.1806 20.7334 26.3342 20.8744 26.4267 21.0597C26.5191 21.2449 26.5505 21.4472 26.5158 21.6647C26.4828 21.8822 26.3903 22.2629 26.2384 22.8067L25.9858 23.7108H25.9841ZM25.0181 21.9655C25.0874 21.7191 25.1155 21.5627 25.1072 21.4931C25.099 21.4234 25.0478 21.3894 24.9586 21.3894C24.8827 21.3894 24.8166 21.4166 24.7605 21.471C24.7043 21.5253 24.6383 21.6902 24.5623 21.9621L23.8737 24.428C23.7878 24.7339 23.7482 24.9243 23.7548 24.9956C23.7614 25.067 23.8126 25.1044 23.91 25.1044C24.0091 25.1044 24.0834 25.0636 24.1346 24.982C24.1858 24.8988 24.2535 24.7033 24.341 24.3923L25.0181 21.9655Z" fill="#61A7C6"/>
<path d="M30.6294 20.6399L29.1547 25.9218L27.8832 25.9133L27.7989 23.5069L27.1285 25.9082L25.9147 25.9014L27.3894 20.6195L28.6032 20.6263L28.7518 23.0106L29.4156 20.6314L30.6294 20.6382V20.6399Z" fill="#61A7C6"/>
</svg>
