<svg width="38" height="38" viewBox="0 0 38 38" fill="none" xmlns="http://www.w3.org/2000/svg">
<path d="M37.3343 19C37.3343 29.309 28.9765 37.6667 18.6667 37.6667H18.6317C8.33841 37.6474 0 29.2952 0 19C0 8.7049 8.33841 0.351773 18.6317 0.333374H18.6667C28.9765 0.333374 37.3343 8.68834 37.3343 19Z" fill="black"/>
<path d="M18.6317 0.333374V37.6667C8.33841 37.6474 0 29.2952 0 19C0 8.7049 8.33841 0.351773 18.6317 0.333374Z" fill="#0C0C0C"/>
<path d="M28.824 13.8326L28.801 17.6568C28.0558 17.6477 27.3144 17.5482 26.5932 17.3606C25.4804 17.0699 24.4309 16.5762 23.4975 15.9043C23.4975 16.2953 23.5031 16.8785 23.5031 17.5878C23.5031 18.5317 23.5031 19.068 23.4975 19.6375C23.481 23.1554 23.5684 23.8361 23.2593 25.2271C23.195 25.5625 23.107 25.893 22.9962 26.216C22.4019 27.8719 21.1066 29.1985 19.7865 29.9041C19.4181 30.0999 19.0314 30.2592 18.6319 30.3797C16.137 31.1359 13.1389 30.4717 11.5916 28.6318L11.5815 28.6208L11.5695 28.6051C10.2549 27.0191 9.96786 24.5463 9.94027 23.9134C9.94027 23.8324 9.93475 23.7533 9.93475 23.7533C9.91449 22.8887 10.0389 22.0268 10.3027 21.2032C10.5695 20.3514 11.4481 18.5731 13.4213 17.4931C14.652 16.8301 16.0567 16.5613 17.4452 16.7231L17.4001 20.5933C17.3219 20.5731 15.4314 20.125 14.1904 21.413C13.0662 22.5795 13.1389 24.4589 13.9365 25.5233C13.9788 25.5803 14.0239 25.6355 14.0708 25.6871C14.517 26.1847 15.0828 26.3715 15.4646 26.5021C15.9708 26.6689 16.5021 26.7467 17.0349 26.7321C17.6057 26.7232 18.1609 26.5448 18.6301 26.2197C19.9272 25.3384 20.102 23.769 20.1085 23.6797C20.0925 18.6274 20.0775 13.575 20.0634 8.52266V8.51806L22.4948 8.47482H22.5344L22.8867 8.46838C23.1465 9.40337 23.5869 10.2785 24.1829 11.0442C24.3707 11.2838 24.5735 11.5111 24.7901 11.725C25.6083 12.5214 26.5912 13.1287 27.6695 13.5042H27.6769C28.0509 13.6409 28.4343 13.7506 28.824 13.8326Z" fill="#FD2854"/>
<path d="M27.7247 15.563H27.7173C26.4079 15.7728 25.0675 15.671 23.8048 15.2659C22.923 14.9792 22.0954 14.5473 21.3559 13.9881C21.7993 16.6684 21.7993 19.4033 21.3559 22.0836C20.8306 25.2335 20.5012 27.2077 18.7432 28.4708C18.7064 28.4975 18.6687 28.5242 18.631 28.549C16.2032 30.193 12.8114 29.377 11.5685 28.6033L11.5501 28.5923L11.5152 28.5702C11.1055 28.2988 10.7212 27.9909 10.3671 27.6502C9.7322 27.0344 9.22559 26.2989 8.87648 25.4862C8.52738 24.6735 8.34269 23.7997 8.33307 22.9153C8.30945 21.9991 8.46153 21.087 8.78109 20.2281C8.98808 19.6761 9.75715 17.713 11.8997 16.5179C13.2717 15.7657 14.857 15.4973 16.4001 15.7562C16.394 16.0629 16.3881 16.3695 16.3826 16.6762V16.6826L16.3467 18.6237C15.6752 18.4655 14.9811 18.4268 14.2962 18.5096C13.7442 18.5777 13.2033 18.6412 12.6283 19.0027C11.8919 19.4767 11.3708 20.2205 11.1766 21.0744C11.0538 21.488 11.0286 21.9245 11.103 22.3495C11.1251 22.4709 11.287 23.3145 11.9678 23.9198C12.1969 24.1232 12.2944 24.1314 12.6283 24.4433C12.9227 24.7193 12.9963 24.8517 13.2658 25.0808C13.2658 25.0808 13.3321 25.1369 13.4406 25.216C13.4476 25.2221 13.455 25.2276 13.4627 25.2326C13.6111 25.3412 13.767 25.4392 13.9291 25.5261C14.6034 25.8793 15.8104 25.917 16.6954 25.4874C17.9199 24.8922 18.5877 23.5233 18.585 22.7101C18.5703 17.6559 18.5552 12.602 18.5399 7.54845H18.6245L22.3798 7.52637C22.3771 7.81929 22.4177 8.11099 22.5003 8.39204C22.5095 8.4224 22.5187 8.45091 22.5288 8.48403C22.5389 8.51715 22.5454 8.53279 22.5536 8.55579C22.6119 8.70867 22.6792 8.85796 22.7551 9.00288L22.8075 9.10868V9.11696C22.8067 9.11934 22.8067 9.12194 22.8075 9.12432L22.8158 9.1418L22.8241 9.15835C22.8291 9.16905 22.8346 9.17949 22.8407 9.18963C22.8462 9.20159 22.8526 9.21355 22.8591 9.22551C22.894 9.29267 22.9418 9.38098 22.9961 9.48034C23.0302 9.54197 23.066 9.60361 23.1028 9.66433L23.1424 9.72964C23.1617 9.76276 23.182 9.79588 23.2022 9.82808L23.2758 9.94491C23.5619 10.3966 24.0642 11.1574 24.7762 11.7324C25.7771 12.5401 26.9271 12.7682 27.6483 12.8363C27.6529 13.0626 27.6584 13.2889 27.663 13.5152C27.69 14.1984 27.7106 14.881 27.7247 15.563Z" fill="#24F6FA"/>
<path d="M27.7364 16.644C25.8408 16.7135 23.9797 16.1241 22.4697 14.9761V23.0716C22.4513 23.3817 22.1799 26.8011 19.0907 28.6833C18.938 28.7753 18.7844 28.8609 18.6308 28.94C15.7246 30.4229 12.8848 29.2611 12.6042 29.1405C12.3252 29.0493 12.0578 28.9258 11.8075 28.7726C11.7293 28.7238 11.653 28.6732 11.5803 28.6208L11.515 28.572C9.61987 27.1332 9.54168 24.2023 9.52972 23.7699C9.50947 22.9053 9.63384 22.0434 9.8977 21.2198C10.2105 20.2216 11.1442 18.5391 13.0163 17.5096C14.0493 16.9475 15.2102 16.6622 16.3861 16.6817V16.6881L16.3401 19.6053C16.1423 19.5519 14.9298 19.2465 13.7449 19.9926C13.0086 20.4666 12.4874 21.2104 12.2932 22.0643C12.1771 22.4787 12.152 22.9134 12.2196 23.3384C12.3247 23.8632 12.5723 24.349 12.9354 24.7423C13.088 24.918 13.2585 25.0774 13.4441 25.2179C13.4511 25.2239 13.4584 25.2294 13.4662 25.2344C13.6119 25.3469 13.7681 25.4452 13.9326 25.5279L13.9381 25.5325C14.2669 26.0289 14.7411 26.4115 15.2957 26.6279C15.8504 26.8443 16.4584 26.8839 17.0365 26.7413C17.3058 26.6851 17.5674 26.5968 17.8157 26.4782C18.1164 26.3352 18.392 26.1445 18.6317 25.9134C19.5627 25.0183 19.6988 23.78 19.7053 23.7055L19.6648 8.53646L20.0696 8.52818L22.501 8.48035H22.5359C22.6073 8.65576 22.6843 8.8288 22.7668 8.9992L22.8193 9.10499V9.11327C22.8184 9.11565 22.8184 9.11825 22.8193 9.12063L22.8276 9.13811L22.8358 9.15467C22.8408 9.16537 22.8464 9.17581 22.8524 9.18595C22.8579 9.19791 22.8644 9.20987 22.8708 9.22183C22.9131 9.30462 22.9628 9.39018 23.0079 9.47665C23.0419 9.53829 23.0778 9.59992 23.1146 9.66064L23.1541 9.72596L23.2139 9.82439L23.2875 9.94122C23.7083 10.5994 24.2127 11.2002 24.788 11.7287C25.6275 12.4973 26.6044 13.1009 27.6674 13.5079H27.6748C27.6867 14.1895 27.6987 14.8731 27.7097 15.5547L27.7364 16.644Z" fill="white"/>
<path d="M28.8241 13.8326L28.8011 17.6568C28.0558 17.6477 27.3145 17.5483 26.5932 17.3606C25.4805 17.0699 24.431 16.5762 23.4976 15.9043C23.4976 16.2953 23.5031 16.8786 23.5031 17.5878C23.5031 18.5317 23.5031 19.068 23.4976 19.6375C23.481 23.1554 23.5684 23.8361 23.2593 25.2271C23.195 25.5625 23.1071 25.893 22.9962 26.216C22.4019 27.8719 21.1066 29.1985 19.7865 29.9041C19.4181 30.0999 19.0314 30.2592 18.632 30.3797V7.54845L22.3872 7.52637C22.3845 7.81929 22.4251 8.11099 22.5077 8.39204C22.5169 8.4224 22.5261 8.45091 22.5362 8.48403L22.8886 8.47759C23.1484 9.41258 23.5887 10.2877 24.1848 11.0534C24.3726 11.293 24.5754 11.5203 24.7919 11.7342C25.7928 12.5419 26.9428 12.7701 27.664 12.8381C27.6686 13.0645 27.6741 13.2908 27.6787 13.5171C28.0525 13.6493 28.4353 13.7548 28.8241 13.8326Z" fill="black" fill-opacity="0.09"/>
</svg>
