<svg width="24" height="25" viewBox="0 0 24 25" fill="none" xmlns="http://www.w3.org/2000/svg">
<path d="M12.3058 23.2594C12.7811 23.2594 13.1664 22.8681 13.1664 22.3854C13.1664 21.9026 12.7811 21.5113 12.3058 21.5113C11.8305 21.5113 11.4452 21.9026 11.4452 22.3854C11.4452 22.8681 11.8305 23.2594 12.3058 23.2594Z" fill="white"/>
<path d="M6.71185 20.1439V24.6271C6.71195 24.728 6.75147 24.8247 6.82172 24.8961C6.89198 24.9674 6.98724 25.0076 7.0866 25.0077H17.5251C17.6244 25.0076 17.7197 24.9674 17.7899 24.8961C17.8602 24.8247 17.8997 24.728 17.8998 24.6271V20.1439C17.8997 20.043 17.8602 19.9463 17.7899 19.8749C17.7197 19.8035 17.6244 19.7634 17.5251 19.7633H7.0866C6.98724 19.7634 6.89198 19.8035 6.82172 19.8749C6.75147 19.9463 6.71195 20.043 6.71185 20.1439ZM12.3058 20.6374C12.6463 20.6374 12.979 20.7399 13.2621 20.932C13.5452 21.1241 13.7658 21.3971 13.896 21.7165C14.0263 22.0359 14.0604 22.3874 13.994 22.7265C13.9276 23.0656 13.7636 23.3771 13.5229 23.6216C13.2822 23.8661 12.9755 24.0326 12.6416 24.1C12.3077 24.1675 11.9617 24.1329 11.6472 24.0005C11.3326 23.8682 11.0638 23.6442 10.8747 23.3567C10.6856 23.0692 10.5846 22.7312 10.5846 22.3855C10.5851 21.922 10.7666 21.4777 11.0893 21.15C11.412 20.8222 11.8495 20.6379 12.3058 20.6374ZM21.3423 24.5706V23.2596H18.7604V24.6271C18.7605 24.7562 18.7408 24.8846 18.7022 25.0077H20.912C21.026 25.0075 21.1354 24.9615 21.2161 24.8795C21.2968 24.7976 21.3421 24.6865 21.3423 24.5706ZM8.00277 18.0152H16.6089V18.8893H8.00277V18.0152Z" fill="white"/>
<path d="M19.1906 13.6449C19.9035 13.6449 20.4815 13.4493 20.4815 13.2079C20.4815 12.9665 19.9035 12.7709 19.1906 12.7709C18.4776 12.7709 17.8997 12.9665 17.8997 13.2079C17.8997 13.4493 18.4776 13.6449 19.1906 13.6449Z" fill="white"/>
<path d="M0.687439 12.3054L2.30528 24.6284C2.31934 24.7332 2.37027 24.8294 2.44866 24.8991C2.52706 24.9688 2.62763 25.0074 2.73182 25.0077H5.90937C5.87072 24.8846 5.85107 24.7562 5.85112 24.6271V20.1439C5.85149 19.8113 5.98176 19.4924 6.21335 19.2571C6.44495 19.0219 6.75895 18.8896 7.08647 18.8892H7.14204V17.5782C7.14204 17.4622 7.18737 17.3511 7.26807 17.2691C7.34877 17.1872 7.45822 17.1411 7.57234 17.1411C8.67925 17.1411 9.27743 16.6271 9.96985 16.0322C10.1674 15.8624 10.3714 15.6873 10.5929 15.519L11.0148 12.3054C11.006 11.0358 10.5036 9.82113 9.61702 8.92603C8.73044 8.03092 7.53153 7.52788 6.28142 7.52647H5.42081C4.1707 7.52788 2.97179 8.03092 2.08521 8.92603C1.19864 9.82113 0.696236 11.0358 0.687439 12.3054ZM2.83897 11.0227C2.83897 10.9068 2.88431 10.7956 2.965 10.7137C3.0457 10.6317 3.15515 10.5857 3.26928 10.5857H8.43295C8.54708 10.5857 8.65653 10.6317 8.73723 10.7137C8.81793 10.7956 8.86326 10.9068 8.86326 11.0227V13.6449C8.86326 13.7608 8.81793 13.872 8.73723 13.9539C8.65653 14.0359 8.54708 14.0819 8.43295 14.0819H3.26928C3.15515 14.0819 3.0457 14.0359 2.965 13.9539C2.88431 13.872 2.83897 13.7608 2.83897 13.6449V11.0227ZM3.77725 6.65241H7.92498L7.63812 4.90429H4.06411L3.77725 6.65241ZM10.1542 0.564087L4.44676 0.950531L4.29663 1.40805H10.1542V0.564087ZM13.3233 15.875C13.2304 15.736 13.168 15.5783 13.1404 15.4127C11.8925 15.5248 11.2266 16.097 10.526 16.6992C10.3526 16.8482 10.1777 16.9982 9.99411 17.1411H16.4642C16.4588 17.1312 16.454 17.1213 16.4485 17.1115C16.2932 16.8335 16.0709 16.7041 15.7482 16.7041C14.503 16.7041 13.6872 16.4252 13.3233 15.875ZM15.3179 8.40053H23.0634V9.27459H15.3179V8.40053ZM15.379 10.1486L16.1301 15.8707C16.3614 15.9206 16.5788 16.0222 16.7666 16.1681C16.9543 16.3141 17.1077 16.5007 17.2156 16.7144C17.3493 16.9688 17.4345 17.2464 17.4669 17.5329V17.5343C17.4669 17.5371 17.4675 17.5402 17.4676 17.5419C17.4686 17.5539 17.4694 17.5659 17.4694 17.5782V18.8892H17.525C17.8525 18.8896 18.1665 19.0219 18.3981 19.2571C18.6297 19.4924 18.7599 19.8113 18.7603 20.1439V22.3855H21.3959L23.0024 10.1486H15.379ZM19.1906 14.5189C17.9642 14.5189 17.0391 13.9553 17.0391 13.2079C17.0391 12.4604 17.9642 11.8968 19.1906 11.8968C20.417 11.8968 21.3421 12.4604 21.3421 13.2079C21.3421 13.9553 20.417 14.5189 19.1906 14.5189Z" fill="white"/>
<path d="M3.69946 11.4597H8.00253V13.2079H3.69946V11.4597ZM4.99038 2.2821H6.71161V4.03022H4.99038V2.2821Z" fill="white"/>
</svg>
