<svg width="27" height="27" viewBox="0 0 27 27" fill="none" xmlns="http://www.w3.org/2000/svg">
<path d="M3.12009 20.4304L3.0315 21.2845C3.03096 21.2861 3.03096 21.2877 3.03096 21.2893C3.0211 21.3731 2.98985 21.4529 2.9402 21.5211C2.90225 21.5735 2.85433 21.618 2.79917 21.6519C2.74402 21.6858 2.68273 21.7086 2.61879 21.7188C2.4886 21.7393 2.35788 21.7085 2.25146 21.6307C2.03106 21.4708 1.98137 21.1613 2.14126 20.9404C2.19036 20.8722 2.25623 20.8179 2.33249 20.7826C2.33411 20.7821 2.33573 20.781 2.33735 20.7805L3.12009 20.4304ZM3.02717 17.1596L2.1229 18.187C2.12182 18.1886 2.1202 18.1903 2.11857 18.1919C2.02875 18.2912 1.91491 18.3658 1.78798 18.4085C1.58919 18.4755 1.37635 18.4609 1.18837 18.368C1.0956 18.3224 1.01282 18.2587 0.944845 18.1808C0.87687 18.1029 0.825055 18.0123 0.792408 17.9142C0.653579 17.5026 0.875057 17.0553 1.28614 16.917C1.36825 16.8889 1.45144 16.8754 1.53571 16.8754C1.58379 16.8754 1.63186 16.8798 1.67994 16.8889C1.6821 16.8889 1.68372 16.8895 1.68588 16.89L3.02717 17.1596ZM3.59005 14.6083L3.00016 14.4651C2.99854 14.4646 2.99746 14.464 2.99584 14.464C2.93809 14.4493 2.88519 14.4197 2.84243 14.3781C2.70252 14.2447 2.69712 14.0222 2.83054 13.8822C2.86221 13.849 2.90013 13.8224 2.94212 13.8038C2.98412 13.7853 3.02936 13.7752 3.07525 13.7742C3.17032 13.7726 3.2573 13.8061 3.32536 13.8709C3.36911 13.9125 3.39991 13.9627 3.41773 14.0205C3.41827 14.0216 3.41881 14.0232 3.41935 14.0249L3.59005 14.6083ZM10.4186 15.7508C10.3862 17.1439 10.1269 18.2929 9.64882 19.1664C9.23342 19.9248 9.03571 20.7545 8.86123 21.486C8.72132 22.0721 8.58897 22.6263 8.38802 22.8856C7.89321 23.5252 7.53074 23.8406 7.5275 23.8428C7.48416 23.88 7.44859 23.9254 7.42282 23.9764C7.39705 24.0274 7.38159 24.0829 7.37732 24.1399L7.22391 26.2456H4.53484C5.07936 24.8513 5.84102 22.9969 5.84967 22.9753C5.87668 22.9099 5.88694 22.8391 5.87992 22.7689C5.79241 21.8744 5.62009 19.3376 5.86965 18.3556C5.98904 17.8856 6.63942 16.9073 7.60853 15.7389C8.54251 14.6131 9.32093 13.8498 9.47326 13.758C9.50783 13.7396 9.61155 13.7407 9.74606 13.8223C10.088 14.0308 10.4445 14.6471 10.4186 15.7508ZM19.3404 26.2456H8.09037L8.16816 25.1836C9.25773 24.9356 10.0518 24.773 10.0599 24.7714C10.2403 24.7341 10.3775 24.5877 10.4018 24.4051L10.7162 22.058C11.734 22.8262 12.7981 23.2583 13.744 23.2583C14.6899 23.2583 15.7206 22.8494 16.7205 22.1029L17.0289 24.4051C17.0409 24.4944 17.0805 24.5776 17.142 24.6433C17.2036 24.7089 17.2842 24.7537 17.3725 24.7714C17.38 24.773 18.072 24.9118 19.2631 25.1857L19.3404 26.2456ZM22.8959 26.2456H20.2068L20.0534 24.1399C20.0446 24.0252 19.9909 23.9186 19.9038 23.8433C19.9 23.8406 19.5375 23.5252 19.0427 22.8856C18.8418 22.6263 18.7094 22.0721 18.5695 21.486C18.395 20.7545 18.1973 19.9248 17.7819 19.1664C17.3039 18.2929 17.0446 17.1439 17.0122 15.7508C16.9862 14.6471 17.3428 14.0308 17.6847 13.8223C17.8192 13.7407 17.9229 13.7396 17.9548 13.7569C18.1098 13.8498 18.8882 14.6131 19.8222 15.7389C20.7913 16.9073 21.4417 17.8856 21.5611 18.3556C21.8107 19.3376 21.6383 21.8744 21.5508 22.7689C21.5438 22.8391 21.5541 22.9099 21.5811 22.9753C21.5897 22.9969 22.3514 24.8513 22.8959 26.2456Z" fill="white"/>
<path d="M19.7427 14.3182C19.1313 13.6403 18.5954 13.1217 18.3707 12.999C18.0411 12.8197 17.6166 12.8516 17.2346 13.0844C16.8943 13.2924 16.1062 13.9703 16.1483 15.7713C16.184 17.3033 16.4784 18.5857 17.024 19.5813C17.1585 19.8276 17.2681 20.089 17.3616 20.3554C16.1807 21.6356 14.8405 22.394 13.7439 22.394C12.6311 22.394 11.2769 21.6189 10.0852 20.3111C10.1749 20.0599 10.2797 19.8135 10.4066 19.5813C10.9522 18.5857 11.2466 17.3033 11.2823 15.7713C11.3244 13.9703 10.5363 13.2924 10.196 13.0844C9.81405 12.8516 9.38946 12.8197 9.05995 12.999C8.83739 13.1206 8.31178 13.6284 7.70947 14.2944C7.77376 13.5965 7.93581 12.7473 8.3026 11.8857C9.05725 10.1144 10.4385 8.8385 12.4075 8.09304C13.0438 7.85212 13.6548 7.6825 14.2333 7.56689C15.7405 7.96069 17.0796 8.87415 18.2145 10.2846C19.3047 11.6394 19.6504 13.2011 19.7427 14.3182Z" fill="white"/>
<path d="M21.9262 11.8501C21.9262 13.1174 21.2223 14.208 20.6368 14.8957C20.6227 13.5679 20.3235 11.5265 18.8876 9.74228C18.0509 8.70241 17.1077 7.90563 16.0706 7.35896C16.8214 7.33951 17.4745 7.40218 18.0012 7.49077C19.2588 7.7009 20.0658 8.09146 20.203 8.16114C21.4265 9.04057 21.9262 10.1112 21.9262 11.8501Z" fill="white"/>
<path d="M20.161 7.1952C19.7434 7.02612 19.0671 6.79599 18.185 6.64474C16.8053 6.40814 14.6294 6.32711 12.1014 7.28487C9.90386 8.11676 8.35838 9.55096 7.50758 11.547C6.97819 12.7894 6.83342 14.0048 6.81181 14.8589C6.13495 13.9875 5.31603 12.4777 5.54453 10.4488C5.766 8.48517 6.49688 6.82571 7.71663 5.51574C8.78405 4.36946 10.2134 3.52406 11.8502 3.0703C12.9981 2.75213 14.0925 2.59656 15.081 2.59656C16.7691 2.59656 18.1477 3.0514 18.9493 3.92813C20.2588 5.36071 20.2717 6.5864 20.161 7.1952ZM16.7556 1.87973C15.3031 1.59504 13.5372 1.70632 11.6195 2.23733C10.5634 2.53011 9.58623 2.97415 8.71976 3.54783C9.14111 2.54902 9.9541 1.30712 11.4882 0.725879C14.1838 -0.296701 15.847 0.807988 16.7556 1.87973ZM25.1794 21.6307C25.127 21.669 25.0676 21.6965 25.0045 21.7116C24.9415 21.7267 24.876 21.7291 24.812 21.7187C24.7481 21.7085 24.6868 21.6858 24.6316 21.6519C24.5765 21.618 24.5286 21.5735 24.4906 21.521C24.441 21.4529 24.4097 21.3731 24.3999 21.2893C24.3999 21.2877 24.3999 21.2861 24.3993 21.2844L24.3107 20.4304L25.0935 20.7804C25.0951 20.781 25.0967 20.7821 25.0983 20.7826C25.175 20.8182 25.2393 20.8712 25.2896 20.9403C25.4494 21.1613 25.3998 21.4708 25.1794 21.6307ZM26.6384 17.9142C26.6058 18.0123 26.5539 18.1029 26.486 18.1808C26.418 18.2587 26.3352 18.3223 26.2424 18.3679C26.1501 18.4139 26.0496 18.4412 25.9467 18.4482C25.8438 18.4551 25.7405 18.4416 25.6428 18.4085C25.5159 18.3658 25.4021 18.2912 25.3122 18.1918C25.3106 18.1902 25.309 18.1886 25.3079 18.187L24.4036 17.1595L25.7449 16.89C25.7471 16.8894 25.7487 16.8889 25.7509 16.8889C25.8838 16.8641 26.0161 16.8732 26.1447 16.917C26.5558 17.0553 26.7772 17.5026 26.6384 17.9142ZM24.5884 14.3781C24.5446 14.4202 24.4933 14.4489 24.435 14.464C24.4334 14.464 24.4323 14.4645 24.4307 14.4651L23.8408 14.6082L24.0115 14.0248C24.012 14.0232 24.0125 14.0216 24.0131 14.0205C24.0309 13.9627 24.0617 13.9125 24.1055 13.8709C24.1385 13.839 24.1777 13.814 24.2205 13.7974C24.2634 13.7808 24.3091 13.7729 24.355 13.7742C24.4485 13.7763 24.5354 13.8147 24.6003 13.8822C24.7337 14.0221 24.7283 14.2447 24.5884 14.3781Z" fill="white"/>
</svg>
