<svg width="21" height="26" viewBox="0 0 21 26" fill="none" xmlns="http://www.w3.org/2000/svg">
<path fill-rule="evenodd" clip-rule="evenodd" d="M20.7227 25.054C20.7227 25.1337 20.6726 25.195 20.6291 25.195H9.49939C10.1588 24.6384 10.579 23.8061 10.579 22.8773C10.579 22.7546 10.5709 22.6334 10.5565 22.5143H20.7227V25.054ZM9.86336 22.8773C9.86336 24.1553 8.82359 25.195 7.5456 25.195H4.35626C4.61646 24.9752 4.84445 24.7079 5.02439 24.396L7.2394 20.5595H7.54509C8.82359 20.5595 9.86336 21.5993 9.86336 22.8773ZM6.57433 23.8102C6.3765 23.8102 6.2165 23.9702 6.2165 24.1681C6.2165 24.3659 6.3765 24.5259 6.57433 24.5259H7.54509C8.454 24.5259 9.19369 23.7862 9.19369 22.8773C9.19369 22.6795 9.03369 22.5195 8.83586 22.5195C8.63803 22.5195 8.47802 22.6795 8.47802 22.8773C8.47802 23.3829 8.05066 23.8102 7.54509 23.8102H6.57433ZM5.38683 22.337L1.37191 20.0192L0.3899 21.7205C0.0816501 22.2541 0.000370137 22.8783 0.161396 23.4785C0.322423 24.0786 0.704796 24.5785 1.23848 24.8868C1.5953 25.0932 2.001 25.2 2.41321 25.1961V25.195H2.46842C3.2439 25.1705 3.98973 24.758 4.40533 24.0382L5.38683 22.337ZM1.72974 19.3996L5.74466 21.7174L6.72667 20.0161C7.03492 19.4824 7.1162 18.8583 6.95517 18.2581C6.79415 17.658 6.41177 17.158 5.87809 16.8498C5.52383 16.6453 5.12919 16.5405 4.72841 16.5405C4.52598 16.5405 4.3215 16.5676 4.12009 16.6213C3.51994 16.7823 3.02 17.1647 2.71175 17.6984L1.72974 19.3996ZM7.58752 19.8449C7.7828 19.279 7.80529 18.6666 7.64631 18.0731C7.50011 17.5271 7.21333 17.0451 6.81715 16.6658V11.0861H20.7227V21.7987H10.3802C9.94924 20.6694 8.86244 19.8623 7.58752 19.8449ZM15.0106 19.5658C15.9174 19.4477 16.7389 19.0438 17.3876 18.3951C18.4944 17.2884 18.8767 15.6771 18.386 14.1895C18.3502 14.0822 18.2659 13.9973 18.1585 13.9621C16.8447 13.5286 15.4134 13.7831 14.3368 14.622C14.2975 14.5796 14.2571 14.5377 14.2162 14.4963C12.9515 13.2321 11.1102 12.795 9.41095 13.3558C9.35785 13.3732 9.3096 13.4029 9.27008 13.4424C9.23057 13.4819 9.2009 13.5302 9.18347 13.5833C8.62269 15.283 9.05976 17.1243 10.3245 18.3885C11.2247 19.2887 12.4168 19.7697 13.6426 19.7697C14.0981 19.7697 14.5587 19.7023 15.0106 19.5658ZM9.80968 13.982C9.41811 15.3735 9.80099 16.8534 10.83 17.8824C11.7553 18.8077 13.0445 19.21 14.3067 18.9973L12.3994 17.1407C12.2578 17.0032 12.2547 16.7762 12.3928 16.6346C12.5308 16.493 12.7572 16.4904 12.8988 16.6279L14.8214 18.4999C15.0418 17.2311 14.64 15.9327 13.7096 15.0023C12.6811 13.9733 11.2012 13.5909 9.80968 13.982ZM14.7831 15.1813C15.4891 16.2159 15.7513 17.4867 15.5075 18.7264C16.0227 18.5638 16.4905 18.2806 16.8821 17.8891C17.7531 17.018 18.0813 15.7681 17.7598 14.5888C16.7256 14.3076 15.624 14.5295 14.7831 15.1813ZM6.81715 10.3704H20.7227V10.0657C20.7227 7.95398 18.8609 7.70912 18.6482 7.68816L18.3093 7.65494L18.3236 7.32368V4.91851H9.21568V7.32062L9.23306 7.65238L8.89158 7.68816C8.67943 7.71066 6.81715 7.96574 6.81715 10.0657V10.3704ZM8.20504 4.20284C8.13348 4.20284 8.07264 4.14201 8.07264 4.07044V1.72763C8.07264 1.25069 8.46064 0.862183 8.93759 0.862183H18.6017C19.0787 0.862183 19.4667 1.25069 19.4667 1.72763V4.07044C19.4667 4.14201 19.4058 4.20284 19.3343 4.20284H8.20504ZM11.3555 1.43319H9.00097C8.80314 1.43319 8.64314 1.59319 8.64314 1.79102C8.64314 1.98834 8.80314 2.14886 9.00097 2.14886H11.3555C11.5534 2.14886 11.7134 1.98834 11.7134 1.79102C11.7134 1.59319 11.5534 1.43319 11.3555 1.43319Z" fill="white"/>
</svg>
