<svg width="27" height="27" viewBox="0 0 27 27" fill="none" xmlns="http://www.w3.org/2000/svg">
<path d="M21.6417 8.21358C22.0321 8.21275 22.4154 8.10961 22.7535 7.91445C23.0915 7.71928 23.3725 7.43892 23.5685 7.1013C23.6077 7.03355 23.6283 6.95665 23.6283 6.87837C23.6283 6.8001 23.6077 6.7232 23.5685 6.65545C23.3732 6.31726 23.0923 6.03644 22.7541 5.84119C22.4159 5.64594 22.0323 5.54315 21.6417 5.54315C21.2512 5.54315 20.8676 5.64594 20.5294 5.84119C20.1912 6.03644 19.9103 6.31726 19.715 6.65545C19.6758 6.7232 19.6552 6.8001 19.6552 6.87837C19.6552 6.95665 19.6758 7.03355 19.715 7.1013C19.9109 7.43891 20.1919 7.71927 20.53 7.91443C20.8681 8.10959 21.2514 8.21274 21.6417 8.21358ZM21.6417 6.4333C21.8294 6.43373 22.0149 6.47356 22.1862 6.55023C22.3575 6.6269 22.5108 6.7387 22.6361 6.87837C22.511 7.01839 22.3578 7.13041 22.1865 7.20711C22.0151 7.28381 21.8295 7.32345 21.6417 7.32345C21.454 7.32345 21.2684 7.28381 21.097 7.20711C20.9257 7.13041 20.7724 7.01839 20.6474 6.87837C20.7727 6.7387 20.926 6.62691 21.0973 6.55024C21.2686 6.47357 21.454 6.43373 21.6417 6.4333Z" fill="white"/>
<path d="M24.5323 22.61C24.24 22.3703 23.8948 22.1145 23.5034 21.8471C23.5271 21.833 23.5508 21.8193 23.5743 21.8047C25.4895 20.621 26.7763 18.1998 26.7763 15.7797C26.7763 13.5189 25.8854 10.8097 23.8953 9.85315C23.0723 9.45765 21.8062 9.25231 20.1432 10.1636C20.0637 9.36886 19.8222 8.70443 19.5948 8.08061C19.1653 6.90207 18.826 5.9712 19.6081 4.40695L18.812 4.00884C17.8585 5.91596 18.316 7.17133 18.7585 8.38543C19.0158 9.09142 19.278 9.81171 19.2759 10.7191C19.2536 10.7352 19.2321 10.7504 19.21 10.7668C17.9883 9.85811 16.9453 9.53855 16.0945 9.51891V6.87831C16.0945 6.78201 16.0632 6.68831 16.0055 6.61127L13.4242 3.16944V0.64734C13.4242 0.5293 13.3773 0.416095 13.2938 0.332628C13.2103 0.249162 13.0971 0.202271 12.9791 0.202271H4.96785C4.84981 0.202271 4.73661 0.249162 4.65314 0.332628C4.56967 0.416095 4.52278 0.5293 4.52278 0.64734V3.16944L1.94138 6.61127C1.88406 6.68855 1.85287 6.78209 1.85237 6.87831V16.5111C1.45372 16.7527 1.16373 17.1389 1.04284 17.5891C0.854854 18.2376 0.901141 19.1802 2.18934 19.9888C2.4885 20.1724 2.80309 20.3296 3.12955 20.4585C1.81031 21.1758 1.65236 22.0552 1.65709 22.4541C1.66683 23.2692 2.30361 23.9784 3.27937 24.2614C3.4244 24.3028 3.57457 24.3234 3.72538 24.3226C4.52734 24.3226 5.5174 23.7801 6.6767 22.7036C7.02524 22.38 7.3443 22.0506 7.6109 21.7595C7.65795 22.1549 7.79877 22.5334 8.02164 22.8634C8.56207 23.6638 9.59323 24.2373 11.4695 24.7811C13.2729 25.3038 16.681 25.7992 19.5731 25.9595C20.2467 25.9968 20.8799 26.0151 21.4622 26.0151C22.1685 26.0211 22.8744 25.9849 23.5763 25.9066C24.9431 25.7379 25.6611 25.3781 25.8361 24.7744C26.0111 24.1707 25.5968 23.4834 24.5323 22.61ZM18.0532 11.9963C18.1705 12.1994 18.3391 12.368 18.5422 12.4852C18.7452 12.6025 18.9756 12.6642 19.2101 12.6642C19.4446 12.6642 19.6749 12.6025 19.878 12.4852C20.0811 12.368 20.2497 12.1994 20.3669 11.9963L21.1374 12.442C20.942 12.7802 20.6611 13.0611 20.3227 13.2563C19.9844 13.4516 19.6007 13.5544 19.2101 13.5544C18.8195 13.5544 18.4357 13.4516 18.0974 13.2563C17.7591 13.0611 17.4781 12.7802 17.2827 12.442L18.0532 11.9963ZM15.2044 7.02669V9.61176C14.97 9.66784 14.7421 9.74876 14.5248 9.85315C12.5347 10.8097 11.6439 13.5189 11.6439 15.7797C11.6441 16.0725 11.6627 16.365 11.6995 16.6555C11.3858 16.6176 11.0691 16.6088 10.7538 16.6293V7.02691L12.9791 4.0598L15.2044 7.02669ZM5.19039 3.76283H12.089L10.0861 6.43324H3.18757L5.19039 3.76283ZM2.7425 7.32338H9.86361V9.9938H2.7425V7.32338ZM7.65874 20.3432C6.50112 21.8049 4.49074 23.6856 3.52722 23.4064C2.93683 23.2353 2.55218 22.8573 2.54723 22.4434C2.54167 21.9718 3.05906 21.3025 4.52857 20.8385C4.61964 20.8097 4.69905 20.7524 4.75504 20.675C4.81103 20.5976 4.84064 20.5042 4.83949 20.4087C4.83834 20.3132 4.8065 20.2206 4.74866 20.1446C4.69083 20.0686 4.61007 20.0132 4.51833 19.9866C2.50489 19.403 1.64763 18.6998 1.89799 17.8369C2.04686 17.3232 2.49699 17.0672 3.26179 17.0672C3.78169 17.0672 4.44712 17.1856 5.26204 17.4217C5.35379 17.4483 5.45166 17.4447 5.54119 17.4114C5.63071 17.378 5.70714 17.3168 5.75918 17.2367C5.81121 17.1566 5.8361 17.0619 5.83015 16.9665C5.8242 16.8712 5.78773 16.7803 5.72614 16.7073C4.73241 15.5293 4.65296 14.6871 4.90994 14.2916C5.13542 13.9445 5.6626 13.8309 6.25299 14.0019C7.21651 14.2812 7.90948 16.9456 8.10615 18.7997L7.65874 20.3432ZM6.50078 13.147C5.52497 12.8642 4.60746 13.1231 4.1635 13.8067C3.94653 14.141 3.60933 14.9688 4.34064 16.2803C3.99572 16.2148 3.64577 16.1794 3.29472 16.1746H3.27803C3.0989 16.1739 2.91995 16.1862 2.74256 16.2111V10.8839H9.86361V16.8215C9.82895 16.835 9.79452 16.8489 9.76075 16.8637C9.39606 17.0229 9.07466 17.2669 8.82326 17.5754C8.75344 17.1871 8.66037 16.7388 8.53903 16.2796C8.05619 14.453 7.3705 13.399 6.50078 13.147ZM24.9815 24.5273C24.9193 24.7419 23.8013 25.3025 19.6224 25.0712C18.9211 25.0322 18.1896 24.9736 17.4594 24.8996L17.8941 23.4L17.0391 23.1522L16.5614 24.8007C14.6587 24.5749 12.8541 24.2561 11.7174 23.9266C10.0802 23.4521 9.16786 22.9707 8.75934 22.3658C8.3866 21.8138 8.38003 21.0522 8.73709 19.8193C9.09415 18.5863 9.50728 17.9462 10.1174 17.6791C10.3767 17.5656 10.6898 17.5083 11.0716 17.5083C11.6748 17.5083 12.4491 17.6514 13.4517 17.942C13.5857 17.9809 13.7282 18.0254 13.8769 18.0739L12.7642 21.9132L13.6191 22.161L14.7176 18.3708C16.4682 19.0283 18.7888 20.1113 20.7436 21.202C21.219 21.4672 21.643 21.7159 22.0216 21.9486L21.5617 23.5361L22.4166 23.784L22.8037 22.4488C24.656 23.6856 25.0294 24.3617 24.9815 24.5273Z" fill="white"/>
</svg>
